<?xml version="1.0" standalone="no"?>
<!DOCTYPE svg PUBLIC "-//W3C//DTD SVG 20010904//EN"
 "http://www.w3.org/TR/2001/REC-SVG-20010904/DTD/svg10.dtd">
<svg version="1.0" xmlns="http://www.w3.org/2000/svg"
 width="500.000000pt" height="500.000000pt" viewBox="0 0 500.000000 500.000000"
 preserveAspectRatio="xMidYMid meet">

<g transform="translate(0.000000,500.000000) scale(0.100000,-0.100000)"
fill="#000000" stroke="none">
<path d="M1 3973 l0 -1028 44 170 c79 310 179 536 347 787 177 265 449 536
718 715 241 160 471 261 775 338 l170 44 -1027 0 -1028 1 1 -1027z"/>
<path d="M3115 4955 c307 -78 538 -180 785 -346 264 -176 533 -445 708 -707
168 -251 268 -477 347 -787 l44 -170 0 1028 1 1027 -1027 -1 -1028 0 170 -44z"/>
<path d="M2300 4660 c-494 -51 -959 -266 -1309 -604 -333 -322 -561 -767 -638
-1247 -23 -143 -23 -475 0 -618 53 -330 171 -630 358 -912 68 -103 113 -155
263 -305 150 -150 202 -195 305 -263 548 -364 1179 -469 1801 -299 256 70 583
239 790 408 538 440 846 1149 792 1828 -30 382 -151 737 -359 1052 -85 129
-142 198 -270 326 -125 126 -202 190 -333 277 -263 174 -576 295 -886 342
-122 19 -399 27 -514 15z m847 -1003 c113 -59 133 -178 44 -265 -38 -38 -508
-398 -635 -486 -128 -90 -651 -488 -651 -496 0 -9 561 -434 643 -487 31 -20
71 -49 87 -64 17 -14 153 -120 304 -233 151 -114 285 -221 298 -239 27 -36 31
-112 9 -156 -33 -63 -115 -101 -219 -101 -70 0 -109 18 -227 106 -47 35 -132
99 -190 142 -58 43 -344 258 -635 478 -292 219 -544 407 -560 416 -17 9 -41
37 -54 62 -33 64 -24 126 27 174 61 57 1388 1054 1522 1144 43 29 48 30 127
24 45 -3 95 -11 110 -19z"/>
<path d="M1 1028 l-1 -1028 1028 1 1027 0 -170 44 c-310 79 -536 179 -787 347
-262 175 -531 444 -707 708 -166 247 -268 478 -346 785 l-44 170 0 -1027z"/>
<path d="M4966 1928 c-105 -458 -316 -842 -651 -1187 -347 -357 -721 -574
-1200 -697 l-170 -43 1028 0 1027 -1 0 1025 c0 564 -1 1025 -3 1025 -1 0 -15
-55 -31 -122z"/>
</g>
</svg>
