<svg version="1.1" id="Layer_1" xmlns="http://www.w3.org/2000/svg" xmlns:xlink="http://www.w3.org/1999/xlink" x="0px" y="0px"
	 width="100%" viewBox="0 0 734 734" enable-background="new 0 0 734 734" xml:space="preserve">
<path fill="#FFFFFF" opacity="1.000000" stroke="none" 
	d="
M0.999998,406.000000 
	C1.000000,380.979095 1.000000,355.958221 1.369728,330.770599 
	C2.153856,329.930786 2.833764,329.298035 2.942964,328.578644 
	C4.670877,317.195099 5.955837,305.731171 8.074783,294.422943 
	C12.341018,271.655182 18.644829,249.373566 28.144947,228.257339 
	C36.031025,210.728714 44.637932,193.436249 54.206478,176.774826 
	C66.352272,155.625732 81.355217,136.361526 98.060005,118.577232 
	C111.825066,103.922646 126.513313,90.239441 142.457352,77.858849 
	C159.329834,64.757324 177.125412,53.144318 195.898804,43.100578 
	C217.998734,31.277143 241.104355,21.638067 265.339386,15.121704 
	C278.844086,11.490528 292.618927,8.816778 306.344299,6.073036 
	C313.495789,4.643430 320.811523,4.046319 328.029816,2.923657 
	C328.768402,2.808784 329.347107,1.665871 330.000000,1.000002 
	C355.020905,1.000000 380.041779,1.000000 405.229401,1.369736 
	C408.982178,2.492503 412.553528,3.326216 416.156891,3.984499 
	C431.250763,6.741944 446.560638,8.627218 461.405212,12.365432 
	C483.003357,17.804352 504.212433,24.993517 524.026245,35.207302 
	C542.283203,44.618526 560.228394,54.865761 577.320007,66.234451 
	C591.345642,75.563766 604.463135,86.475143 616.990051,97.785255 
	C632.024963,111.359825 645.669800,126.358215 658.140198,142.450073 
	C671.225525,159.335403 682.854431,177.120758 692.898193,195.894730 
	C704.721436,217.995117 714.362671,241.100983 720.878357,265.337128 
	C724.509094,278.842438 727.183167,292.617645 729.926880,306.343475 
	C731.356445,313.495209 731.953735,320.811127 733.076477,328.029663 
	C733.191345,328.768311 734.334106,329.347076 735.000000,330.000000 
	C735.000000,355.020905 735.000000,380.041779 734.630249,405.229401 
	C733.507507,408.982269 732.673706,412.553711 732.015442,416.157166 
	C729.257751,431.251434 727.371094,446.561279 723.634094,461.406708 
	C718.196960,483.006165 711.003784,504.214539 700.791809,524.029541 
	C691.382019,542.288086 681.132812,560.233337 669.763245,577.325317 
	C660.433289,591.351196 649.571228,604.520630 638.196411,616.981628 
	C624.548218,631.933044 609.736877,645.756348 593.582214,658.197327 
	C576.646484,671.240051 558.835388,682.805420 540.093323,692.887878 
	C518.020386,704.762207 494.892151,714.363037 470.655579,720.878723 
	C457.152802,724.508789 443.380402,727.183289 429.657257,729.926880 
	C422.505371,731.356628 415.189178,731.953735 407.970459,733.076355 
	C407.231781,733.191345 406.652985,734.334167 406.000000,735.000000 
	C380.979095,735.000000 355.958221,735.000000 330.770599,734.630249 
	C329.930878,733.846191 329.298157,733.166260 328.578827,733.057129 
	C317.194885,731.329163 305.730682,730.043823 294.421936,727.925232 
	C271.653229,723.659729 249.371277,717.354553 228.254257,707.854675 
	C210.724945,699.968750 193.430771,691.363586 176.770264,681.792603 
	C155.622269,669.643799 136.309845,654.689087 118.586357,637.920349 
	C103.989464,624.109802 90.109230,609.618103 77.813026,593.565430 
	C64.822823,576.606689 53.146309,558.865784 43.100178,540.095642 
	C31.272573,517.996948 21.634274,494.890503 15.120869,470.653625 
	C11.492149,457.150879 8.816545,443.379272 6.073071,429.656525 
	C4.643308,422.504852 4.046325,415.188812 2.923652,407.970306 
	C2.808774,407.231689 1.665862,406.652924 0.999998,406.000000 
M426.424072,108.002548 
	C425.347260,107.679405 424.290253,107.244209 423.190704,107.049744 
	C403.294495,103.531029 383.329834,100.752678 363.037262,102.011307 
	C353.368256,102.611015 343.591187,102.619461 334.069031,104.164886 
	C319.775574,106.484657 305.508911,109.334389 291.510559,113.021004 
	C271.091644,118.398529 252.006134,127.140785 233.830811,137.960785 
	C215.594345,148.817184 198.512909,161.163528 183.476364,176.145248 
	C175.896790,183.697189 168.766037,191.724716 161.756149,199.817673 
	C149.544144,213.916565 139.606659,229.619370 131.069992,246.130783 
	C121.016907,265.575256 113.586548,285.984863 108.673340,307.431519 
	C103.703636,329.124756 100.993401,350.907135 102.035583,373.120239 
	C102.489494,382.795074 102.610313,392.569763 104.167557,402.088867 
	C106.504791,416.375824 109.419762,430.622894 113.091751,444.623962 
	C118.449509,465.052734 127.152245,484.162750 137.995468,502.316864 
	C148.703568,520.244873 160.821396,537.087036 175.523529,551.957520 
	C181.568222,558.071533 187.744400,564.101379 194.294693,569.657959 
	C202.221161,576.382019 210.117416,583.355835 218.908569,588.796692 
	C232.400101,597.146545 246.262161,605.119995 260.682434,611.680786 
	C273.598907,617.557495 287.292297,621.995605 300.997772,625.784790 
	C312.164398,628.872192 323.804932,630.441528 335.329010,631.983337 
	C346.340607,633.456543 357.460541,634.554932 368.556671,634.819580 
	C377.028046,635.021606 385.576355,633.981140 394.018921,632.922974 
	C405.598602,631.471619 417.292969,630.248901 428.614014,627.562256 
	C452.893372,621.800232 476.083954,612.992004 497.904541,600.650146 
	C515.758240,590.552002 532.568298,578.953613 547.357239,564.837708 
	C558.169800,554.517334 567.985229,543.091003 577.692383,531.687134 
	C595.528381,510.733490 608.355408,486.688477 617.816284,461.055725 
	C629.509521,429.374664 635.671936,396.544098 633.971008,362.564178 
	C633.495056,353.056427 633.368103,343.451843 631.839172,334.094604 
	C629.503845,319.801483 626.656555,305.536285 622.993408,291.529419 
	C618.064697,272.683350 610.162659,254.955414 600.532227,237.984421 
	C589.751465,218.986328 577.395691,201.085175 561.929016,185.682663 
	C550.659180,174.459534 538.768494,163.705948 526.200439,153.975464 
	C506.148224,138.450516 484.018616,126.277596 459.933350,118.037239 
	C449.171692,114.355316 438.178375,111.350555 426.424072,108.002548 
z"/>
<path fill="#000000" opacity="1.000000" stroke="none" 
	d="
M329.531342,1.000002 
	C329.347107,1.665871 328.768402,2.808784 328.029816,2.923657 
	C320.811523,4.046319 313.495789,4.643430 306.344299,6.073036 
	C292.618927,8.816778 278.844086,11.490528 265.339386,15.121704 
	C241.104355,21.638067 217.998734,31.277143 195.898804,43.100578 
	C177.125412,53.144318 159.329834,64.757324 142.457352,77.858849 
	C126.513313,90.239441 111.825066,103.922646 98.060005,118.577232 
	C81.355217,136.361526 66.352272,155.625732 54.206478,176.774826 
	C44.637932,193.436249 36.031025,210.728714 28.144947,228.257339 
	C18.644829,249.373566 12.341018,271.655182 8.074783,294.422943 
	C5.955837,305.731171 4.670877,317.195099 2.942964,328.578644 
	C2.833764,329.298035 2.153856,329.930786 1.369728,330.301941 
	C1.000000,220.406265 1.000000,110.812523 1.000000,1.000000 
	C110.354134,1.000000 219.708405,1.000000 329.531342,1.000002 
z"/>
<path fill="#000000" opacity="1.000000" stroke="none" 
	d="
M735.000000,329.531342 
	C734.334106,329.347076 733.191345,328.768311 733.076477,328.029663 
	C731.953735,320.811127 731.356445,313.495209 729.926880,306.343475 
	C727.183167,292.617645 724.509094,278.842438 720.878357,265.337128 
	C714.362671,241.100983 704.721436,217.995117 692.898193,195.894730 
	C682.854431,177.120758 671.225525,159.335403 658.140198,142.450073 
	C645.669800,126.358215 632.024963,111.359825 616.990051,97.785255 
	C604.463135,86.475143 591.345642,75.563766 577.320007,66.234451 
	C560.228394,54.865761 542.283203,44.618526 524.026245,35.207302 
	C504.212433,24.993517 483.003357,17.804352 461.405212,12.365432 
	C446.560638,8.627218 431.250763,6.741944 416.156891,3.984499 
	C412.553528,3.326216 408.982178,2.492503 405.698059,1.369736 
	C515.593689,1.000000 625.187439,1.000000 735.000000,1.000000 
	C735.000000,110.354134 735.000000,219.708405 735.000000,329.531342 
z"/>
<path fill="#000000" opacity="1.000000" stroke="none" 
	d="
M0.999998,406.468658 
	C1.665862,406.652924 2.808774,407.231689 2.923652,407.970306 
	C4.046325,415.188812 4.643308,422.504852 6.073071,429.656525 
	C8.816545,443.379272 11.492149,457.150879 15.120869,470.653625 
	C21.634274,494.890503 31.272573,517.996948 43.100178,540.095642 
	C53.146309,558.865784 64.822823,576.606689 77.813026,593.565430 
	C90.109230,609.618103 103.989464,624.109802 118.586357,637.920349 
	C136.309845,654.689087 155.622269,669.643799 176.770264,681.792603 
	C193.430771,691.363586 210.724945,699.968750 228.254257,707.854675 
	C249.371277,717.354553 271.653229,723.659729 294.421936,727.925232 
	C305.730682,730.043823 317.194885,731.329163 328.578827,733.057129 
	C329.298157,733.166260 329.930878,733.846191 330.301941,734.630249 
	C220.406265,735.000000 110.812523,735.000000 1.000000,735.000000 
	C1.000000,625.645874 1.000000,516.291565 0.999998,406.468658 
z"/>
<path fill="#000000" opacity="1.000000" stroke="none" 
	d="
M406.468658,735.000000 
	C406.652985,734.334167 407.231781,733.191345 407.970459,733.076355 
	C415.189178,731.953735 422.505371,731.356628 429.657257,729.926880 
	C443.380402,727.183289 457.152802,724.508789 470.655579,720.878723 
	C494.892151,714.363037 518.020386,704.762207 540.093323,692.887878 
	C558.835388,682.805420 576.646484,671.240051 593.582214,658.197327 
	C609.736877,645.756348 624.548218,631.933044 638.196411,616.981628 
	C649.571228,604.520630 660.433289,591.351196 669.763245,577.325317 
	C681.132812,560.233337 691.382019,542.288086 700.791809,524.029541 
	C711.003784,504.214539 718.196960,483.006165 723.634094,461.406708 
	C727.371094,446.561279 729.257751,431.251434 732.015442,416.157166 
	C732.673706,412.553711 733.507507,408.982269 734.630249,405.698059 
	C735.000000,515.593750 735.000000,625.187439 735.000000,735.000000 
	C625.645874,735.000000 516.291565,735.000000 406.468658,735.000000 
z"/>
<path fill="#000000" opacity="1.000000" stroke="none" 
	d="
M426.857117,108.020508 
	C438.178375,111.350555 449.171692,114.355316 459.933350,118.037239 
	C484.018616,126.277596 506.148224,138.450516 526.200439,153.975464 
	C538.768494,163.705948 550.659180,174.459534 561.929016,185.682663 
	C577.395691,201.085175 589.751465,218.986328 600.532227,237.984421 
	C610.162659,254.955414 618.064697,272.683350 622.993408,291.529419 
	C626.656555,305.536285 629.503845,319.801483 631.839172,334.094604 
	C633.368103,343.451843 633.495056,353.056427 633.971008,362.564178 
	C635.671936,396.544098 629.509521,429.374664 617.816284,461.055725 
	C608.355408,486.688477 595.528381,510.733490 577.692383,531.687134 
	C567.985229,543.091003 558.169800,554.517334 547.357239,564.837708 
	C532.568298,578.953613 515.758240,590.552002 497.904541,600.650146 
	C476.083954,612.992004 452.893372,621.800232 428.614014,627.562256 
	C417.292969,630.248901 405.598602,631.471619 394.018921,632.922974 
	C385.576355,633.981140 377.028046,635.021606 368.556671,634.819580 
	C357.460541,634.554932 346.340607,633.456543 335.329010,631.983337 
	C323.804932,630.441528 312.164398,628.872192 300.997772,625.784790 
	C287.292297,621.995605 273.598907,617.557495 260.682434,611.680786 
	C246.262161,605.119995 232.400101,597.146545 218.908569,588.796692 
	C210.117416,583.355835 202.221161,576.382019 194.294693,569.657959 
	C187.744400,564.101379 181.568222,558.071533 175.523529,551.957520 
	C160.821396,537.087036 148.703568,520.244873 137.995468,502.316864 
	C127.152245,484.162750 118.449509,465.052734 113.091751,444.623962 
	C109.419762,430.622894 106.504791,416.375824 104.167557,402.088867 
	C102.610313,392.569763 102.489494,382.795074 102.035583,373.120239 
	C100.993401,350.907135 103.703636,329.124756 108.673340,307.431519 
	C113.586548,285.984863 121.016907,265.575256 131.069992,246.130783 
	C139.606659,229.619370 149.544144,213.916565 161.756149,199.817673 
	C168.766037,191.724716 175.896790,183.697189 183.476364,176.145248 
	C198.512909,161.163528 215.594345,148.817184 233.830811,137.960785 
	C252.006134,127.140785 271.091644,118.398529 291.510559,113.021004 
	C305.508911,109.334389 319.775574,106.484657 334.069031,104.164886 
	C343.591187,102.619461 353.368256,102.611015 363.037262,102.011307 
	C383.329834,100.752678 403.294495,103.531029 423.190704,107.049744 
	C424.290253,107.244209 425.347260,107.679405 426.857117,108.020508 
M252.539429,403.024200 
	C255.961121,405.784302 259.665039,408.261200 262.761627,411.347443 
	C301.595367,450.051880 340.343597,488.842133 379.108032,527.616089 
	C388.229523,536.739807 399.571747,541.246277 412.122192,541.848755 
	C426.154144,542.522461 438.806122,537.609924 448.625153,527.632629 
	C460.029297,516.044556 465.451904,502.001862 463.108032,485.269592 
	C461.511688,473.873779 456.777985,464.323425 448.777435,456.307495 
	C417.227112,424.696838 385.621948,393.140930 353.984222,361.511780 
	C385.260132,330.237488 416.368652,298.898315 447.778625,267.864197 
	C457.147003,258.607941 461.097473,247.240402 461.822693,234.818848 
	C462.642365,220.780548 457.555847,208.153595 447.593414,198.334900 
	C436.004364,186.913025 421.933716,181.583115 405.212219,183.878860 
	C395.056549,185.273163 385.893951,188.885895 378.832672,195.879837 
	C334.732483,239.559433 290.844788,283.455200 247.111237,327.502319 
	C235.852234,338.842072 230.543060,352.580109 232.907974,368.996277 
	C234.899704,382.821899 240.785934,394.107513 252.539429,403.024200 
z"/>
<path fill="#FFFFFF" opacity="1.000000" stroke="none" 
	d="
M252.274078,402.769348 
	C240.785934,394.107513 234.899704,382.821899 232.907974,368.996277 
	C230.543060,352.580109 235.852234,338.842072 247.111237,327.502319 
	C290.844788,283.455200 334.732483,239.559433 378.832672,195.879837 
	C385.893951,188.885895 395.056549,185.273163 405.212219,183.878860 
	C421.933716,181.583115 436.004364,186.913025 447.593414,198.334900 
	C457.555847,208.153595 462.642365,220.780548 461.822693,234.818848 
	C461.097473,247.240402 457.147003,258.607941 447.778625,267.864197 
	C416.368652,298.898315 385.260132,330.237488 353.984222,361.511780 
	C385.621948,393.140930 417.227112,424.696838 448.777435,456.307495 
	C456.777985,464.323425 461.511688,473.873779 463.108032,485.269592 
	C465.451904,502.001862 460.029297,516.044556 448.625153,527.632629 
	C438.806122,537.609924 426.154144,542.522461 412.122192,541.848755 
	C399.571747,541.246277 388.229523,536.739807 379.108032,527.616089 
	C340.343597,488.842133 301.595367,450.051880 262.761627,411.347443 
	C259.665039,408.261200 255.961121,405.784302 252.274078,402.769348 
z"/>
</svg>