<?xml version="1.0" standalone="no"?>
<!DOCTYPE svg PUBLIC "-//W3C//DTD SVG 20010904//EN"
 "http://www.w3.org/TR/2001/REC-SVG-20010904/DTD/svg10.dtd">
<svg version="1.0" xmlns="http://www.w3.org/2000/svg"
 width="500.000000pt" height="500.000000pt" viewBox="0 0 500.000000 500.000000"
 preserveAspectRatio="xMidYMid meet">

<g transform="translate(0.000000,500.000000) scale(0.100000,-0.100000)"
fill="#000000" stroke="none">
<path d="M1885 4955 c-310 -79 -536 -179 -787 -347 -265 -177 -536 -449 -715
-718 -162 -243 -262 -473 -339 -779 l-44 -175 0 -436 0 -436 44 -175 c78 -309
179 -539 347 -789 176 -264 445 -533 707 -708 253 -170 479 -269 791 -348
l175 -44 436 0 436 0 175 44 c247 62 404 123 604 234 334 184 648 468 869 785
179 257 291 506 372 826 l44 175 0 436 0 436 -44 175 c-79 312 -178 538 -348
791 -175 262 -444 531 -708 707 -250 168 -480 269 -789 347 l-175 44 -440 -1
-441 0 -170 -44z m929 -310 c310 -47 623 -168 886 -342 131 -87 208 -151 333
-277 128 -128 185 -197 270 -326 390 -590 472 -1318 221 -1968 -167 -433 -448
-787 -820 -1032 -594 -392 -1321 -475 -1969 -225 -158 61 -314 142 -456 236
-103 68 -155 113 -305 263 -150 150 -195 202 -263 305 -187 282 -305 582 -358
912 -23 143 -23 475 0 618 100 624 439 1158 947 1494 297 196 643 320 1000
357 115 12 392 4 514 -15z"/>
<path d="M2968 3681 c-20 -4 -45 -14 -56 -22 -11 -8 -71 -51 -133 -96 -63 -45
-141 -103 -174 -130 -119 -95 -1165 -883 -1173 -883 -15 0 -82 -76 -82 -93 0
-10 -6 -26 -12 -37 -10 -16 -10 -24 0 -40 6 -11 12 -26 12 -35 0 -18 60 -78
97 -97 15 -8 286 -210 601 -449 315 -239 595 -450 622 -469 26 -19 93 -68 148
-107 54 -40 115 -80 135 -88 73 -30 169 -15 238 38 82 62 101 141 51 209 -15
20 -142 124 -282 230 -141 106 -280 212 -310 236 -30 23 -209 157 -397 297
-189 141 -343 260 -343 265 0 9 674 520 686 520 4 0 30 19 58 43 28 24 155
121 281 217 127 95 247 190 267 211 84 86 54 206 -66 263 -40 19 -120 27 -168
17z"/>
</g>
</svg>
