<svg version="1.1" id="Layer_1" xmlns="http://www.w3.org/2000/svg" xmlns:xlink="http://www.w3.org/1999/xlink" x="0px" y="0px"
	 width="100%" viewBox="0 0 734 734" enable-background="new 0 0 734 734" xml:space="preserve">
<path fill="#FFFFFF" opacity="1.000000" stroke="none" 
	d="
M336.000000,1.000000 
	C356.687561,1.000000 377.375122,1.000000 398.228699,1.375759 
	C399.738373,2.167657 401.057434,2.815669 402.429779,2.961072 
	C409.585205,3.719206 416.870026,3.761513 423.894348,5.146175 
	C438.734894,8.071599 453.514526,11.385535 468.185852,15.070696 
	C488.939819,20.283699 508.927917,27.988367 527.875427,37.716110 
	C545.568604,46.799873 562.772034,57.085503 579.219360,68.270905 
	C592.781372,77.494125 605.396362,88.283836 617.576477,99.322327 
	C633.938843,114.150986 648.606934,130.642868 661.921265,148.340164 
	C676.216980,167.342010 688.711975,187.515427 698.716187,208.960007 
	C706.951599,226.613220 713.617615,245.097183 719.653503,263.644379 
	C723.917480,276.746857 726.321838,290.503357 728.884949,304.094543 
	C730.810486,314.305206 731.634155,324.721985 733.076172,335.029144 
	C733.178650,335.761475 734.334167,336.346466 735.000000,337.000000 
	C735.000000,357.354218 735.000000,377.708466 734.624268,398.228699 
	C733.832397,399.738251 733.184326,401.057251 733.038940,402.429504 
	C732.280823,409.584930 732.238525,416.869781 730.853821,423.894104 
	C727.928406,438.734650 724.614319,453.514191 720.929260,468.185577 
	C715.716248,488.939575 708.011719,508.927704 698.283936,527.875244 
	C689.200195,545.568420 678.914551,562.771790 667.729187,579.219116 
	C658.506042,592.781189 647.716309,605.396240 636.677856,617.576294 
	C621.849121,633.938477 605.357544,648.606934 587.660156,661.921082 
	C568.658142,676.216614 548.484680,688.711792 527.040161,698.716187 
	C509.387024,706.951782 490.902924,713.617615 472.355652,719.653381 
	C459.253143,723.917297 445.496643,726.321716 431.905487,728.884827 
	C421.694794,730.810425 411.277985,731.634094 400.970917,733.076233 
	C400.238556,733.178711 399.653564,734.334167 399.000031,735.000000 
	C378.312439,735.000000 357.624878,735.000000 336.771301,734.624268 
	C335.762177,733.833191 334.951630,733.151611 334.070862,733.043823 
	C325.340515,731.975281 316.468445,731.633728 307.887512,729.867004 
	C291.047333,726.399841 274.186584,722.789978 257.661713,718.088440 
	C229.908768,710.192139 204.119553,697.670715 179.235184,683.102112 
	C158.307709,670.850220 138.890305,656.532043 121.059654,640.277039 
	C104.989494,625.626892 90.084999,609.749756 76.737137,592.415527 
	C61.030842,572.018555 47.251820,550.383911 36.361046,527.205750 
	C27.949371,509.303619 21.526356,490.399567 15.200608,471.610535 
	C11.473755,460.540833 9.397326,448.879883 7.073897,437.384766 
	C5.310041,428.658142 4.367534,419.766998 2.925604,410.971039 
	C2.803919,410.228760 1.665877,409.653076 1.000005,409.000000 
	C1.000000,381.979095 1.000000,354.958221 1.369735,327.770599 
	C2.498182,322.518494 2.951612,317.364807 4.070644,312.359985 
	C8.036272,294.623840 11.445068,276.710022 16.522251,259.288208 
	C23.898190,233.978470 35.030319,210.171448 47.889015,187.110626 
	C60.970154,163.650894 76.522820,141.968781 94.538170,122.227760 
	C112.607445,102.427673 131.989944,83.756973 154.606232,69.087166 
	C171.856461,57.897980 189.195602,46.532593 207.621841,37.559055 
	C225.527924,28.838852 244.659164,22.423306 263.652374,16.220341 
	C276.438110,12.044658 289.849182,9.628651 303.111542,7.117387 
	C313.315643,5.185211 323.728699,4.365882 334.030945,2.923844 
	C334.762726,2.821411 335.347076,1.665866 336.000000,1.000000 
M180.000031,557.500000 
	C191.093109,566.924500 201.459656,577.429321 213.462341,585.501282 
	C228.624252,595.697876 244.645630,604.916260 261.167023,612.711060 
	C279.301514,621.266907 298.556122,627.341064 318.581055,630.206177 
	C330.980103,631.980164 343.398865,634.369019 355.861420,634.747192 
	C369.995026,635.176086 384.199097,633.851379 398.351166,632.952271 
	C414.399658,631.932617 429.889893,627.911865 445.225311,623.325989 
	C464.373169,617.599976 482.526855,609.562927 499.866058,599.626221 
	C517.973450,589.249329 534.669800,576.964111 549.811462,562.629456 
	C563.301025,549.859009 575.373535,535.876587 586.065247,520.610474 
	C596.187317,506.157837 604.852661,490.913208 611.852539,474.825592 
	C619.868225,456.403198 626.266418,437.339142 629.231506,417.349701 
	C631.069397,404.959442 633.163147,392.536774 633.820984,380.058990 
	C634.723389,362.945770 634.259094,345.753265 630.952454,328.833313 
	C628.575439,316.670319 626.213989,304.470367 623.011841,292.510101 
	C617.589355,272.256317 608.982422,253.271011 598.584229,235.069946 
	C588.395081,217.234924 576.750793,200.357086 562.156677,185.967346 
	C549.210144,173.202072 535.790527,160.581390 521.017944,150.097580 
	C506.289856,139.645264 490.063843,130.987762 473.683044,123.264542 
	C455.538513,114.709740 436.320679,108.561913 416.289337,105.719284 
	C403.884735,103.958969 391.456543,101.616783 378.988495,101.249832 
	C364.853546,100.833832 350.601013,101.736145 336.513947,103.180382 
	C324.318298,104.430717 312.059998,106.401077 300.222961,109.538139 
	C276.404968,115.850433 253.746094,125.241043 232.469254,137.862488 
	C215.502869,147.926971 199.620590,159.445084 185.494675,173.176605 
	C176.751404,181.675781 168.101059,190.460510 160.709503,200.112930 
	C151.122604,212.632233 141.946533,225.641098 134.173080,239.335785 
	C120.214470,263.927063 110.219734,290.190002 105.935791,318.339600 
	C104.102104,330.388733 101.937393,342.451599 101.207489,354.585480 
	C100.554329,365.443451 101.281128,376.436737 102.104012,387.316956 
	C102.975563,398.840729 103.895004,410.461243 106.195023,421.754059 
	C110.039856,440.631714 116.027824,458.944153 123.957855,476.565125 
	C137.553268,506.774750 155.849396,533.735291 180.000031,557.500000 
z"/>
<path fill="#000000" opacity="1.000000" stroke="none" 
	d="
M735.000000,336.531342 
	C734.334167,336.346466 733.178650,335.761475 733.076172,335.029144 
	C731.634155,324.721985 730.810486,314.305206 728.884949,304.094543 
	C726.321838,290.503357 723.917480,276.746857 719.653503,263.644379 
	C713.617615,245.097183 706.951599,226.613220 698.716187,208.960007 
	C688.711975,187.515427 676.216980,167.342010 661.921265,148.340164 
	C648.606934,130.642868 633.938843,114.150986 617.576477,99.322327 
	C605.396362,88.283836 592.781372,77.494125 579.219360,68.270905 
	C562.772034,57.085503 545.568604,46.799873 527.875427,37.716110 
	C508.927917,27.988367 488.939819,20.283699 468.185852,15.070696 
	C453.514526,11.385535 438.734894,8.071599 423.894348,5.146175 
	C416.870026,3.761513 409.585205,3.719206 402.429779,2.961072 
	C401.057434,2.815669 399.738373,2.167657 398.697357,1.375759 
	C510.927032,1.000000 622.854065,1.000000 735.000000,1.000000 
	C735.000000,112.687469 735.000000,224.375076 735.000000,336.531342 
z"/>
<path fill="#000000" opacity="1.000000" stroke="none" 
	d="
M399.468689,735.000000 
	C399.653564,734.334167 400.238556,733.178711 400.970917,733.076233 
	C411.277985,731.634094 421.694794,730.810425 431.905487,728.884827 
	C445.496643,726.321716 459.253143,723.917297 472.355652,719.653381 
	C490.902924,713.617615 509.387024,706.951782 527.040161,698.716187 
	C548.484680,688.711792 568.658142,676.216614 587.660156,661.921082 
	C605.357544,648.606934 621.849121,633.938477 636.677856,617.576294 
	C647.716309,605.396240 658.506042,592.781189 667.729187,579.219116 
	C678.914551,562.771790 689.200195,545.568420 698.283936,527.875244 
	C708.011719,508.927704 715.716248,488.939575 720.929260,468.185577 
	C724.614319,453.514191 727.928406,438.734650 730.853821,423.894104 
	C732.238525,416.869781 732.280823,409.584930 733.038940,402.429504 
	C733.184326,401.057251 733.832397,399.738251 734.624268,398.697327 
	C735.000000,510.927063 735.000000,622.854126 735.000000,735.000000 
	C623.312561,735.000000 511.624939,735.000000 399.468689,735.000000 
z"/>
<path fill="#000000" opacity="1.000000" stroke="none" 
	d="
M1.000005,409.468658 
	C1.665877,409.653076 2.803919,410.228760 2.925604,410.971039 
	C4.367534,419.766998 5.310041,428.658142 7.073897,437.384766 
	C9.397326,448.879883 11.473755,460.540833 15.200608,471.610535 
	C21.526356,490.399567 27.949371,509.303619 36.361046,527.205750 
	C47.251820,550.383911 61.030842,572.018555 76.737137,592.415527 
	C90.084999,609.749756 104.989494,625.626892 121.059654,640.277039 
	C138.890305,656.532043 158.307709,670.850220 179.235184,683.102112 
	C204.119553,697.670715 229.908768,710.192139 257.661713,718.088440 
	C274.186584,722.789978 291.047333,726.399841 307.887512,729.867004 
	C316.468445,731.633728 325.340515,731.975281 334.070862,733.043823 
	C334.951630,733.151611 335.762177,733.833191 336.302673,734.624268 
	C224.407257,735.000000 112.814522,735.000000 1.000000,735.000000 
	C1.000000,626.645874 1.000000,518.291565 1.000005,409.468658 
z"/>
<path fill="#000000" opacity="1.000000" stroke="none" 
	d="
M335.531342,1.000000 
	C335.347076,1.665866 334.762726,2.821411 334.030945,2.923844 
	C323.728699,4.365882 313.315643,5.185211 303.111542,7.117387 
	C289.849182,9.628651 276.438110,12.044658 263.652374,16.220341 
	C244.659164,22.423306 225.527924,28.838852 207.621841,37.559055 
	C189.195602,46.532593 171.856461,57.897980 154.606232,69.087166 
	C131.989944,83.756973 112.607445,102.427673 94.538170,122.227760 
	C76.522820,141.968781 60.970154,163.650894 47.889015,187.110626 
	C35.030319,210.171448 23.898190,233.978470 16.522251,259.288208 
	C11.445068,276.710022 8.036272,294.623840 4.070644,312.359985 
	C2.951612,317.364807 2.498182,322.518494 1.369735,327.301941 
	C1.000000,218.405273 1.000000,109.810547 1.000000,1.000000 
	C112.354134,1.000000 223.708405,1.000000 335.531342,1.000000 
z"/>
<path fill="#000000" opacity="1.000000" stroke="none" 
	d="
M179.750000,557.250000 
	C155.849396,533.735291 137.553268,506.774750 123.957855,476.565125 
	C116.027824,458.944153 110.039856,440.631714 106.195023,421.754059 
	C103.895004,410.461243 102.975563,398.840729 102.104012,387.316956 
	C101.281128,376.436737 100.554329,365.443451 101.207489,354.585480 
	C101.937393,342.451599 104.102104,330.388733 105.935791,318.339600 
	C110.219734,290.190002 120.214470,263.927063 134.173080,239.335785 
	C141.946533,225.641098 151.122604,212.632233 160.709503,200.112930 
	C168.101059,190.460510 176.751404,181.675781 185.494675,173.176605 
	C199.620590,159.445084 215.502869,147.926971 232.469254,137.862488 
	C253.746094,125.241043 276.404968,115.850433 300.222961,109.538139 
	C312.059998,106.401077 324.318298,104.430717 336.513947,103.180382 
	C350.601013,101.736145 364.853546,100.833832 378.988495,101.249832 
	C391.456543,101.616783 403.884735,103.958969 416.289337,105.719284 
	C436.320679,108.561913 455.538513,114.709740 473.683044,123.264542 
	C490.063843,130.987762 506.289856,139.645264 521.017944,150.097580 
	C535.790527,160.581390 549.210144,173.202072 562.156677,185.967346 
	C576.750793,200.357086 588.395081,217.234924 598.584229,235.069946 
	C608.982422,253.271011 617.589355,272.256317 623.011841,292.510101 
	C626.213989,304.470367 628.575439,316.670319 630.952454,328.833313 
	C634.259094,345.753265 634.723389,362.945770 633.820984,380.058990 
	C633.163147,392.536774 631.069397,404.959442 629.231506,417.349701 
	C626.266418,437.339142 619.868225,456.403198 611.852539,474.825592 
	C604.852661,490.913208 596.187317,506.157837 586.065247,520.610474 
	C575.373535,535.876587 563.301025,549.859009 549.811462,562.629456 
	C534.669800,576.964111 517.973450,589.249329 499.866058,599.626221 
	C482.526855,609.562927 464.373169,617.599976 445.225311,623.325989 
	C429.889893,627.911865 414.399658,631.932617 398.351166,632.952271 
	C384.199097,633.851379 369.995026,635.176086 355.861420,634.747192 
	C343.398865,634.369019 330.980103,631.980164 318.581055,630.206177 
	C298.556122,627.341064 279.301514,621.266907 261.167023,612.711060 
	C244.645630,604.916260 228.624252,595.697876 213.462341,585.501282 
	C201.459656,577.429321 191.093109,566.924500 179.750000,557.250000 
M404.155914,496.978821 
	C404.373749,496.855682 404.591583,496.732513 404.809418,496.609375 
	C404.565979,496.381104 404.322571,496.152802 403.782776,495.297333 
	C403.421814,495.539978 403.060852,495.782593 402.699890,496.025208 
	C403.023132,496.294556 403.346375,496.563904 404.155914,496.978821 
M487.500000,331.000000 
	C501.049500,317.449615 514.803406,304.095825 528.084900,290.287720 
	C539.029907,278.908752 544.220520,265.472961 542.116211,249.217484 
	C538.740417,223.138901 519.021912,206.630051 494.049164,205.204010 
	C480.700958,204.441772 468.433411,209.289200 458.786804,218.822449 
	C432.116333,245.179535 405.695770,271.789551 379.209900,298.333069 
	C377.987579,299.558044 377.090912,301.108032 376.000885,302.562317 
	C347.626648,274.170837 320.078705,246.568832 292.464996,219.032761 
	C289.675079,216.250702 286.886871,212.799866 283.409729,211.499664 
	C273.187439,207.677261 263.020691,203.138672 251.420731,205.897949 
	C242.053513,208.126144 233.267334,210.632675 225.752380,217.435715 
	C218.930603,223.611252 213.915298,230.574326 211.059723,239.111710 
	C205.481293,255.789581 207.810028,271.390228 218.803421,285.204834 
	C223.624969,291.263702 229.263611,296.697205 234.744919,302.201874 
	C258.109894,325.666351 281.554749,349.051239 305.002411,372.497192 
	C277.743713,399.754791 250.548538,426.767670 223.577866,454.002869 
	C211.898239,465.797058 206.535767,479.846832 208.904282,496.807892 
	C212.442245,522.143250 232.350891,538.425842 255.916840,539.818298 
	C270.024658,540.651917 282.752045,535.637024 292.924591,525.523438 
	C320.487274,498.120483 347.907745,470.574493 375.505310,442.964447 
	C403.104218,470.577362 430.378662,498.421692 458.313446,525.586975 
	C472.937286,539.807983 491.041565,544.048523 510.250702,536.723206 
	C532.261597,528.329468 542.781799,510.290405 542.816101,488.962708 
	C542.836670,476.166016 537.964355,464.574768 528.779968,455.340546 
	C501.279816,427.691315 473.648285,400.172821 445.973236,372.508423 
	C459.684601,358.803223 473.342316,345.151642 487.500000,331.000000 
M344.966522,555.351196 
	C344.027679,555.294800 343.088837,555.238464 342.150024,555.182068 
	C342.156342,555.548584 342.162659,555.915039 342.168976,556.281555 
	C342.872925,556.173096 343.576904,556.064636 344.966522,555.351196 
M340.791840,556.837585 
	C340.715790,557.145813 340.639709,557.454041 340.563660,557.762268 
	C340.953094,557.733154 341.342529,557.704041 341.731995,557.674927 
	C341.678040,557.305908 341.624084,556.936890 340.791840,556.837585 
z"/>
<path fill="#FFFFFF" opacity="1.000000" stroke="none" 
	d="
M487.250031,331.250031 
	C473.342316,345.151642 459.684601,358.803223 445.973236,372.508423 
	C473.648285,400.172821 501.279816,427.691315 528.779968,455.340546 
	C537.964355,464.574768 542.836670,476.166016 542.816101,488.962708 
	C542.781799,510.290405 532.261597,528.329468 510.250702,536.723206 
	C491.041565,544.048523 472.937286,539.807983 458.313446,525.586975 
	C430.378662,498.421692 403.104218,470.577362 375.505310,442.964447 
	C347.907745,470.574493 320.487274,498.120483 292.924591,525.523438 
	C282.752045,535.637024 270.024658,540.651917 255.916840,539.818298 
	C232.350891,538.425842 212.442245,522.143250 208.904282,496.807892 
	C206.535767,479.846832 211.898239,465.797058 223.577866,454.002869 
	C250.548538,426.767670 277.743713,399.754791 305.002411,372.497192 
	C281.554749,349.051239 258.109894,325.666351 234.744919,302.201874 
	C229.263611,296.697205 223.624969,291.263702 218.803421,285.204834 
	C207.810028,271.390228 205.481293,255.789581 211.059723,239.111710 
	C213.915298,230.574326 218.930603,223.611252 225.752380,217.435715 
	C233.267334,210.632675 242.053513,208.126144 251.420731,205.897949 
	C263.020691,203.138672 273.187439,207.677261 283.409729,211.499664 
	C286.886871,212.799866 289.675079,216.250702 292.464996,219.032761 
	C320.078705,246.568832 347.626648,274.170837 376.000885,302.562317 
	C377.090912,301.108032 377.987579,299.558044 379.209900,298.333069 
	C405.695770,271.789551 432.116333,245.179535 458.786804,218.822449 
	C468.433411,209.289200 480.700958,204.441772 494.049164,205.204010 
	C519.021912,206.630051 538.740417,223.138901 542.116211,249.217484 
	C544.220520,265.472961 539.029907,278.908752 528.084900,290.287720 
	C514.803406,304.095825 501.049500,317.449615 487.250031,331.250031 
z"/>
<path fill="#FFFFFF" opacity="1.000000" stroke="none" 
	d="
M344.623688,555.653687 
	C343.576904,556.064636 342.872925,556.173096 342.168976,556.281555 
	C342.162659,555.915039 342.156342,555.548584 342.150024,555.182068 
	C343.088837,555.238464 344.027679,555.294800 344.623688,555.653687 
z"/>
<path fill="#FFFFFF" opacity="1.000000" stroke="none" 
	d="
M341.180969,556.702759 
	C341.624084,556.936890 341.678040,557.305908 341.731995,557.674927 
	C341.342529,557.704041 340.953094,557.733154 340.563660,557.762268 
	C340.639709,557.454041 340.715790,557.145813 341.180969,556.702759 
z"/>
<path fill="#FFFFFF" opacity="1.000000" stroke="none" 
	d="
M403.669647,496.833221 
	C403.346375,496.563904 403.023132,496.294556 402.699890,496.025208 
	C403.060852,495.782593 403.421814,495.539978 403.800842,495.825562 
	C403.769135,496.513641 403.719391,496.673431 403.669647,496.833221 
z"/>
<path fill="#FFFFFF" opacity="1.000000" stroke="none" 
	d="
M403.949036,496.139160 
	C404.322571,496.152802 404.565979,496.381104 404.809418,496.609375 
	C404.591583,496.732513 404.373749,496.855682 403.912781,496.906006 
	C403.719391,496.673431 403.769135,496.513641 403.949036,496.139160 
z"/>
</svg>