<svg version="1.1" id="Layer_1" xmlns="http://www.w3.org/2000/svg" xmlns:xlink="http://www.w3.org/1999/xlink" x="0px" y="0px"
	 width="100%" viewBox="0 0 734 734" enable-background="new 0 0 734 734" xml:space="preserve">
<path fill="#FFFFFF" opacity="1.000000" stroke="none" 
	d="
M336.000000,1.000000 
	C356.687561,1.000000 377.375122,1.000000 398.228699,1.375759 
	C399.738373,2.167657 401.057434,2.815669 402.429779,2.961072 
	C409.585205,3.719206 416.870026,3.761513 423.894348,5.146175 
	C438.734894,8.071599 453.514526,11.385535 468.185852,15.070696 
	C488.939819,20.283699 508.927917,27.988367 527.875427,37.716110 
	C545.568604,46.799873 562.772034,57.085503 579.219360,68.270905 
	C592.781372,77.494125 605.396362,88.283836 617.576477,99.322327 
	C633.938843,114.150986 648.606934,130.642868 661.921265,148.340164 
	C676.216980,167.342010 688.711975,187.515427 698.716187,208.960007 
	C706.951599,226.613220 713.617615,245.097183 719.653503,263.644379 
	C723.917480,276.746857 726.321838,290.503357 728.884949,304.094543 
	C730.810486,314.305206 731.634155,324.721985 733.076172,335.029144 
	C733.178650,335.761475 734.334167,336.346466 735.000000,337.000000 
	C735.000000,357.354218 735.000000,377.708466 734.624268,398.228699 
	C733.832397,399.738251 733.184326,401.057251 733.038940,402.429504 
	C732.280823,409.584930 732.238525,416.869781 730.853821,423.894104 
	C727.928406,438.734650 724.614319,453.514191 720.929260,468.185577 
	C715.716248,488.939575 708.011719,508.927704 698.283936,527.875244 
	C689.200195,545.568420 678.914551,562.771790 667.729187,579.219116 
	C658.506042,592.781189 647.716309,605.396240 636.677856,617.576294 
	C621.849121,633.938477 605.357544,648.606934 587.660156,661.921082 
	C568.658142,676.216614 548.484680,688.711792 527.040161,698.716187 
	C509.387024,706.951782 490.902924,713.617615 472.355652,719.653381 
	C459.253143,723.917297 445.496643,726.321716 431.905487,728.884827 
	C421.694794,730.810425 411.277985,731.634094 400.970917,733.076233 
	C400.238556,733.178711 399.653564,734.334167 399.000031,735.000000 
	C378.312439,735.000000 357.624878,735.000000 336.771301,734.624268 
	C335.762177,733.833191 334.951630,733.151611 334.070862,733.043823 
	C325.340515,731.975281 316.468445,731.633728 307.887512,729.867004 
	C291.047333,726.399841 274.186584,722.789978 257.661713,718.088440 
	C229.908768,710.192139 204.119553,697.670715 179.235184,683.102112 
	C158.307709,670.850220 138.890305,656.532043 121.059654,640.277039 
	C104.989494,625.626892 90.084999,609.749756 76.737137,592.415527 
	C61.030842,572.018555 47.251820,550.383911 36.361046,527.205750 
	C27.949371,509.303619 21.526356,490.399567 15.200608,471.610535 
	C11.473755,460.540833 9.397326,448.879883 7.073897,437.384766 
	C5.310041,428.658142 4.367534,419.766998 2.925604,410.971039 
	C2.803919,410.228760 1.665877,409.653076 1.000005,409.000000 
	C1.000000,381.979095 1.000000,354.958221 1.369735,327.770599 
	C2.498182,322.518494 2.951612,317.364807 4.070644,312.359985 
	C8.036272,294.623840 11.445068,276.710022 16.522251,259.288208 
	C23.898190,233.978470 35.030319,210.171448 47.889015,187.110626 
	C60.970154,163.650894 76.522820,141.968781 94.538170,122.227760 
	C112.607445,102.427673 131.989944,83.756973 154.606232,69.087166 
	C171.856461,57.897980 189.195602,46.532593 207.621841,37.559055 
	C225.527924,28.838852 244.659164,22.423306 263.652374,16.220341 
	C276.438110,12.044658 289.849182,9.628651 303.111542,7.117387 
	C313.315643,5.185211 323.728699,4.365882 334.030945,2.923844 
	C334.762726,2.821411 335.347076,1.665866 336.000000,1.000000 
M518.488281,147.993011 
	C517.425903,147.262024 516.416504,146.435226 515.293152,145.814590 
	C501.506439,138.197800 488.105225,129.724121 473.803040,123.239174 
	C455.528564,114.953072 436.419159,108.581390 416.379089,105.765526 
	C403.974365,104.022507 391.567139,101.866890 379.090088,101.174423 
	C362.307892,100.243027 345.454010,100.832024 328.865753,104.049271 
	C316.701050,106.408554 304.490784,108.731735 292.542419,111.964073 
	C271.357910,117.695061 251.506943,126.736473 232.563980,137.814789 
	C215.679291,147.689346 200.165573,159.385635 185.855591,172.677246 
	C172.451035,185.127899 160.467285,198.871277 149.821350,213.736786 
	C139.197662,228.571182 130.288544,244.466339 123.122734,261.203796 
	C115.216347,279.671112 108.584724,298.644623 105.739655,318.674438 
	C103.977882,331.077637 101.769646,343.493011 101.178833,355.970001 
	C100.182808,377.004822 101.931038,397.899719 105.827530,418.710083 
	C109.640053,439.071991 115.900810,458.583588 124.233543,477.367798 
	C135.713730,503.247223 151.155319,526.775330 170.300217,547.662781 
	C183.856567,562.453003 198.823959,575.733032 215.435944,587.152649 
	C232.218338,598.689331 249.959000,608.319458 268.803406,615.992981 
	C296.306213,627.192078 325.000061,633.387756 354.537811,634.767944 
	C368.975067,635.442566 383.537201,633.839966 398.023773,632.956055 
	C414.241882,631.966614 429.866913,627.872131 445.370239,623.251282 
	C464.379425,617.585571 482.375824,609.600586 499.599365,599.815735 
	C516.863831,590.007629 532.944885,578.473389 547.367371,564.888855 
	C556.840881,555.965759 566.034424,546.515686 573.942444,536.218018 
	C584.036743,523.073242 593.646790,509.365692 601.782593,494.950806 
	C615.358826,470.896790 624.765930,445.076538 629.062927,417.636444 
	C630.973877,405.433350 633.181091,393.190826 633.804871,380.892700 
	C634.680969,363.620117 634.402893,346.252777 630.967407,329.165924 
	C628.492859,316.858093 626.132324,304.500214 622.941833,292.369598 
	C617.647278,272.239319 609.079102,253.397430 598.765442,235.349686 
	C588.164551,216.799408 575.671387,199.624924 560.738708,184.325058 
	C553.803467,177.219284 546.649963,170.281204 539.136841,163.798553 
	C532.771973,158.306595 525.747131,153.579529 518.488281,147.993011 
z"/>
<path fill="#000000" opacity="1.000000" stroke="none" 
	d="
M735.000000,336.531342 
	C734.334167,336.346466 733.178650,335.761475 733.076172,335.029144 
	C731.634155,324.721985 730.810486,314.305206 728.884949,304.094543 
	C726.321838,290.503357 723.917480,276.746857 719.653503,263.644379 
	C713.617615,245.097183 706.951599,226.613220 698.716187,208.960007 
	C688.711975,187.515427 676.216980,167.342010 661.921265,148.340164 
	C648.606934,130.642868 633.938843,114.150986 617.576477,99.322327 
	C605.396362,88.283836 592.781372,77.494125 579.219360,68.270905 
	C562.772034,57.085503 545.568604,46.799873 527.875427,37.716110 
	C508.927917,27.988367 488.939819,20.283699 468.185852,15.070696 
	C453.514526,11.385535 438.734894,8.071599 423.894348,5.146175 
	C416.870026,3.761513 409.585205,3.719206 402.429779,2.961072 
	C401.057434,2.815669 399.738373,2.167657 398.697357,1.375759 
	C510.927032,1.000000 622.854065,1.000000 735.000000,1.000000 
	C735.000000,112.687469 735.000000,224.375076 735.000000,336.531342 
z"/>
<path fill="#000000" opacity="1.000000" stroke="none" 
	d="
M399.468689,735.000000 
	C399.653564,734.334167 400.238556,733.178711 400.970917,733.076233 
	C411.277985,731.634094 421.694794,730.810425 431.905487,728.884827 
	C445.496643,726.321716 459.253143,723.917297 472.355652,719.653381 
	C490.902924,713.617615 509.387024,706.951782 527.040161,698.716187 
	C548.484680,688.711792 568.658142,676.216614 587.660156,661.921082 
	C605.357544,648.606934 621.849121,633.938477 636.677856,617.576294 
	C647.716309,605.396240 658.506042,592.781189 667.729187,579.219116 
	C678.914551,562.771790 689.200195,545.568420 698.283936,527.875244 
	C708.011719,508.927704 715.716248,488.939575 720.929260,468.185577 
	C724.614319,453.514191 727.928406,438.734650 730.853821,423.894104 
	C732.238525,416.869781 732.280823,409.584930 733.038940,402.429504 
	C733.184326,401.057251 733.832397,399.738251 734.624268,398.697327 
	C735.000000,510.927063 735.000000,622.854126 735.000000,735.000000 
	C623.312561,735.000000 511.624939,735.000000 399.468689,735.000000 
z"/>
<path fill="#000000" opacity="1.000000" stroke="none" 
	d="
M1.000005,409.468658 
	C1.665877,409.653076 2.803919,410.228760 2.925604,410.971039 
	C4.367534,419.766998 5.310041,428.658142 7.073897,437.384766 
	C9.397326,448.879883 11.473755,460.540833 15.200608,471.610535 
	C21.526356,490.399567 27.949371,509.303619 36.361046,527.205750 
	C47.251820,550.383911 61.030842,572.018555 76.737137,592.415527 
	C90.084999,609.749756 104.989494,625.626892 121.059654,640.277039 
	C138.890305,656.532043 158.307709,670.850220 179.235184,683.102112 
	C204.119553,697.670715 229.908768,710.192139 257.661713,718.088440 
	C274.186584,722.789978 291.047333,726.399841 307.887512,729.867004 
	C316.468445,731.633728 325.340515,731.975281 334.070862,733.043823 
	C334.951630,733.151611 335.762177,733.833191 336.302673,734.624268 
	C224.407257,735.000000 112.814522,735.000000 1.000000,735.000000 
	C1.000000,626.645874 1.000000,518.291565 1.000005,409.468658 
z"/>
<path fill="#000000" opacity="1.000000" stroke="none" 
	d="
M335.531342,1.000000 
	C335.347076,1.665866 334.762726,2.821411 334.030945,2.923844 
	C323.728699,4.365882 313.315643,5.185211 303.111542,7.117387 
	C289.849182,9.628651 276.438110,12.044658 263.652374,16.220341 
	C244.659164,22.423306 225.527924,28.838852 207.621841,37.559055 
	C189.195602,46.532593 171.856461,57.897980 154.606232,69.087166 
	C131.989944,83.756973 112.607445,102.427673 94.538170,122.227760 
	C76.522820,141.968781 60.970154,163.650894 47.889015,187.110626 
	C35.030319,210.171448 23.898190,233.978470 16.522251,259.288208 
	C11.445068,276.710022 8.036272,294.623840 4.070644,312.359985 
	C2.951612,317.364807 2.498182,322.518494 1.369735,327.301941 
	C1.000000,218.405273 1.000000,109.810547 1.000000,1.000000 
	C112.354134,1.000000 223.708405,1.000000 335.531342,1.000000 
z"/>
<path fill="#000000" opacity="1.000000" stroke="none" 
	d="
M518.751343,148.253510 
	C525.747131,153.579529 532.771973,158.306595 539.136841,163.798553 
	C546.649963,170.281204 553.803467,177.219284 560.738708,184.325058 
	C575.671387,199.624924 588.164551,216.799408 598.765442,235.349686 
	C609.079102,253.397430 617.647278,272.239319 622.941833,292.369598 
	C626.132324,304.500214 628.492859,316.858093 630.967407,329.165924 
	C634.402893,346.252777 634.680969,363.620117 633.804871,380.892700 
	C633.181091,393.190826 630.973877,405.433350 629.062927,417.636444 
	C624.765930,445.076538 615.358826,470.896790 601.782593,494.950806 
	C593.646790,509.365692 584.036743,523.073242 573.942444,536.218018 
	C566.034424,546.515686 556.840881,555.965759 547.367371,564.888855 
	C532.944885,578.473389 516.863831,590.007629 499.599365,599.815735 
	C482.375824,609.600586 464.379425,617.585571 445.370239,623.251282 
	C429.866913,627.872131 414.241882,631.966614 398.023773,632.956055 
	C383.537201,633.839966 368.975067,635.442566 354.537811,634.767944 
	C325.000061,633.387756 296.306213,627.192078 268.803406,615.992981 
	C249.959000,608.319458 232.218338,598.689331 215.435944,587.152649 
	C198.823959,575.733032 183.856567,562.453003 170.300217,547.662781 
	C151.155319,526.775330 135.713730,503.247223 124.233543,477.367798 
	C115.900810,458.583588 109.640053,439.071991 105.827530,418.710083 
	C101.931038,397.899719 100.182808,377.004822 101.178833,355.970001 
	C101.769646,343.493011 103.977882,331.077637 105.739655,318.674438 
	C108.584724,298.644623 115.216347,279.671112 123.122734,261.203796 
	C130.288544,244.466339 139.197662,228.571182 149.821350,213.736786 
	C160.467285,198.871277 172.451035,185.127899 185.855591,172.677246 
	C200.165573,159.385635 215.679291,147.689346 232.563980,137.814789 
	C251.506943,126.736473 271.357910,117.695061 292.542419,111.964073 
	C304.490784,108.731735 316.701050,106.408554 328.865753,104.049271 
	C345.454010,100.832024 362.307892,100.243027 379.090088,101.174423 
	C391.567139,101.866890 403.974365,104.022507 416.379089,105.765526 
	C436.419159,108.581390 455.528564,114.953072 473.803040,123.239174 
	C488.105225,129.724121 501.506439,138.197800 515.293152,145.814590 
	C516.416504,146.435226 517.425903,147.262024 518.751343,148.253510 
M359.500000,353.000000 
	C366.665039,360.147064 373.830078,367.294098 381.035004,374.480896 
	C350.337158,405.173401 319.746063,435.626373 289.351471,466.274200 
	C284.037354,471.632660 277.541168,476.296936 276.477081,484.885529 
	C275.788147,490.446289 273.340668,495.867706 273.166595,501.398315 
	C272.724487,515.446289 277.576843,528.008301 287.545654,537.843994 
	C300.371063,550.498047 316.366241,555.707214 333.933929,551.696594 
	C345.576324,549.038757 356.784515,544.194275 365.498016,535.060303 
	C406.207825,492.385773 450.696198,453.408844 489.127747,408.490631 
	C499.389801,396.496552 505.338501,383.580566 503.111847,367.331421 
	C501.211731,353.465057 495.300629,342.301605 484.261230,333.667206 
	C478.845459,329.431305 473.561371,324.950745 468.692688,320.103729 
	C431.961060,283.535339 395.345886,246.849991 358.698090,210.197388 
	C346.351410,197.849091 331.821594,192.455811 314.192810,194.905807 
	C288.293091,198.505234 271.828705,219.523270 271.181549,243.928360 
	C270.832123,257.104187 275.711151,269.059509 285.147552,278.573853 
	C309.675629,303.304565 334.371246,327.869141 359.500000,353.000000 
M273.550873,483.681091 
	C273.077942,484.353790 272.593231,485.019165 272.160858,485.717010 
	C272.134552,485.759491 272.523376,486.059174 272.719025,486.239197 
	C273.133392,485.655151 273.547760,485.071075 273.550873,483.681091 
M344.966522,555.351196 
	C344.027679,555.294800 343.088837,555.238464 342.150024,555.182068 
	C342.156342,555.548584 342.162659,555.915039 342.168976,556.281555 
	C342.872925,556.173096 343.576904,556.064636 344.966522,555.351196 
M270.222748,487.306854 
	C270.686890,487.469330 271.148163,487.643066 271.623077,487.762695 
	C271.648254,487.769043 271.788727,487.317566 271.875519,487.079224 
	C271.530304,486.985962 271.185059,486.892670 270.222748,487.306854 
M340.791840,556.837585 
	C340.715790,557.145813 340.639709,557.454041 340.563660,557.762268 
	C340.953094,557.733154 341.342529,557.704041 341.731995,557.674927 
	C341.678040,557.305908 341.624084,556.936890 340.791840,556.837585 
z"/>
<path fill="#FFFFFF" opacity="1.000000" stroke="none" 
	d="
M359.250000,352.750000 
	C334.371246,327.869141 309.675629,303.304565 285.147552,278.573853 
	C275.711151,269.059509 270.832123,257.104187 271.181549,243.928360 
	C271.828705,219.523270 288.293091,198.505234 314.192810,194.905807 
	C331.821594,192.455811 346.351410,197.849091 358.698090,210.197388 
	C395.345886,246.849991 431.961060,283.535339 468.692688,320.103729 
	C473.561371,324.950745 478.845459,329.431305 484.261230,333.667206 
	C495.300629,342.301605 501.211731,353.465057 503.111847,367.331421 
	C505.338501,383.580566 499.389801,396.496552 489.127747,408.490631 
	C450.696198,453.408844 406.207825,492.385773 365.498016,535.060303 
	C356.784515,544.194275 345.576324,549.038757 333.933929,551.696594 
	C316.366241,555.707214 300.371063,550.498047 287.545654,537.843994 
	C277.576843,528.008301 272.724487,515.446289 273.166595,501.398315 
	C273.340668,495.867706 275.788147,490.446289 276.477081,484.885529 
	C277.541168,476.296936 284.037354,471.632660 289.351471,466.274200 
	C319.746063,435.626373 350.337158,405.173401 381.035004,374.480896 
	C373.830078,367.294098 366.665039,360.147064 359.250000,352.750000 
z"/>
<path fill="#FFFFFF" opacity="1.000000" stroke="none" 
	d="
M273.756500,484.084045 
	C273.547760,485.071075 273.133392,485.655151 272.719025,486.239197 
	C272.523376,486.059174 272.134552,485.759491 272.160858,485.717010 
	C272.593231,485.019165 273.077942,484.353790 273.756500,484.084045 
z"/>
<path fill="#FFFFFF" opacity="1.000000" stroke="none" 
	d="
M344.623688,555.653687 
	C343.576904,556.064636 342.872925,556.173096 342.168976,556.281555 
	C342.162659,555.915039 342.156342,555.548584 342.150024,555.182068 
	C343.088837,555.238464 344.027679,555.294800 344.623688,555.653687 
z"/>
<path fill="#FFFFFF" opacity="1.000000" stroke="none" 
	d="
M270.531311,487.053131 
	C271.185059,486.892670 271.530304,486.985962 271.875519,487.079224 
	C271.788727,487.317566 271.648254,487.769043 271.623077,487.762695 
	C271.148163,487.643066 270.686890,487.469330 270.531311,487.053131 
z"/>
<path fill="#FFFFFF" opacity="1.000000" stroke="none" 
	d="
M341.180969,556.702759 
	C341.624084,556.936890 341.678040,557.305908 341.731995,557.674927 
	C341.342529,557.704041 340.953094,557.733154 340.563660,557.762268 
	C340.639709,557.454041 340.715790,557.145813 341.180969,556.702759 
z"/>
</svg>