<?xml version="1.0" standalone="no"?>
<!DOCTYPE svg PUBLIC "-//W3C//DTD SVG 20010904//EN"
 "http://www.w3.org/TR/2001/REC-SVG-20010904/DTD/svg10.dtd">
<svg version="1.0" xmlns="http://www.w3.org/2000/svg"
 width="500.000000pt" height="500.000000pt" viewBox="0 0 500.000000 500.000000"
 preserveAspectRatio="xMidYMid meet">

<g transform="translate(0.000000,500.000000) scale(0.100000,-0.100000)"
fill="#000000" stroke="none">
<path d="M1 3973 l0 -1028 44 170 c117 458 312 806 640 1144 347 357 721 574
1200 697 l170 43 -1027 0 -1028 1 1 -1027z"/>
<path d="M3115 4955 c310 -79 536 -179 787 -347 262 -175 531 -444 707 -708
166 -247 268 -478 346 -785 l44 -170 0 1028 1 1027 -1027 -1 -1028 0 170 -44z"/>
<path d="M2300 4659 c-409 -39 -855 -221 -1170 -479 -538 -440 -846 -1149
-792 -1828 30 -382 151 -737 359 -1052 85 -129 142 -198 270 -326 125 -126
202 -190 333 -277 264 -174 570 -292 891 -344 143 -23 475 -23 618 0 459 74
877 280 1200 591 333 322 561 767 638 1247 23 143 23 475 0 618 -53 330 -171
630 -358 912 -68 103 -113 155 -263 305 -150 150 -202 195 -305 263 -433 287
-930 417 -1421 370z m549 -340 c404 -68 670 -271 775 -591 55 -170 60 -429 12
-603 -67 -241 -188 -401 -511 -681 -256 -222 -337 -324 -366 -462 -17 -85 -7
-214 23 -290 l26 -62 -343 0 -342 0 -16 58 c-66 236 -38 502 74 688 56 93 137
181 295 324 227 203 303 296 343 416 57 172 25 344 -82 441 -22 19 -69 49
-106 67 -65 31 -68 31 -216 30 -154 0 -189 -6 -345 -56 -132 -42 -301 -137
-417 -235 l-53 -45 0 396 0 396 113 55 c334 163 748 219 1136 154z m-168
-2997 c199 -70 308 -226 297 -427 -13 -252 -235 -424 -518 -402 -319 25 -514
301 -410 581 45 119 192 236 335 265 74 15 230 6 296 -17z"/>
<path d="M1 1028 l-1 -1028 1028 1 1027 0 -170 44 c-307 78 -538 180 -785 346
-264 176 -533 445 -708 707 -168 251 -268 477 -347 787 l-44 170 0 -1027z"/>
<path d="M4966 1928 c-111 -482 -339 -884 -702 -1238 -341 -333 -687 -527
-1149 -645 l-170 -44 1028 0 1027 -1 0 1025 c0 564 -1 1025 -3 1025 -1 0 -15
-55 -31 -122z"/>
</g>
</svg>
