<?xml version="1.0" standalone="no"?>
<!DOCTYPE svg PUBLIC "-//W3C//DTD SVG 20010904//EN"
 "http://www.w3.org/TR/2001/REC-SVG-20010904/DTD/svg10.dtd">
<svg version="1.0" xmlns="http://www.w3.org/2000/svg"
 width="500.000000pt" height="500.000000pt" viewBox="0 0 500.000000 500.000000"
 preserveAspectRatio="xMidYMid meet">

<g transform="translate(0.000000,500.000000) scale(0.100000,-0.100000)"
fill="#000000" stroke="none">
<path d="M1885 4955 c-458 -117 -806 -312 -1144 -640 -359 -349 -576 -723
-697 -1204 l-44 -175 0 -436 0 -436 44 -175 c79 -312 178 -538 348 -791 175
-262 444 -531 708 -707 250 -168 480 -269 789 -347 l175 -44 436 0 436 0 175
44 c312 79 538 178 791 348 265 177 536 449 715 718 162 243 262 473 339 779
l44 175 0 436 0 436 -44 175 c-78 309 -179 539 -347 789 -176 264 -445 533
-707 708 -253 170 -479 269 -791 348 l-175 44 -440 -1 -441 0 -170 -44z m800
-295 c368 -34 716 -159 1036 -371 103 -68 155 -113 305 -263 150 -150 195
-202 263 -305 187 -282 305 -582 358 -912 23 -143 23 -475 0 -618 -100 -624
-439 -1158 -947 -1494 -264 -174 -570 -292 -891 -344 -143 -23 -475 -23 -618
0 -321 52 -627 170 -891 344 -131 87 -208 151 -333 277 -128 128 -185 197
-270 326 -390 590 -472 1318 -221 1968 198 513 553 910 1032 1156 374 191 780
272 1177 236z"/>
<path d="M2375 4344 c-16 -2 -70 -9 -120 -15 -188 -23 -403 -89 -566 -173
l-84 -43 -3 -397 -2 -398 47 40 c279 232 693 357 935 282 118 -36 183 -94 236
-208 49 -108 31 -274 -46 -412 -37 -68 -160 -197 -361 -380 -136 -123 -202
-205 -257 -315 -91 -183 -109 -428 -48 -643 l15 -52 345 0 c190 0 344 3 342 8
-50 97 -67 199 -51 310 26 172 89 254 414 534 279 241 393 396 465 633 26 85
28 101 28 285 1 157 -3 208 -17 260 -103 376 -359 585 -812 665 -86 15 -397
28 -460 19z"/>
<path d="M2380 1339 c-70 -14 -185 -75 -240 -129 -130 -127 -157 -337 -64
-496 33 -57 120 -136 182 -168 146 -74 346 -75 491 -3 73 36 157 120 193 195
32 64 33 72 33 182 0 110 -2 119 -32 181 -93 187 -322 285 -563 238z"/>
</g>
</svg>
