<svg version="1.1" id="Layer_1" xmlns="http://www.w3.org/2000/svg" xmlns:xlink="http://www.w3.org/1999/xlink" x="0px" y="0px"
	 width="100%" viewBox="0 0 734 734" enable-background="new 0 0 734 734" xml:space="preserve">
<path fill="#FFFFFF" opacity="1.000000" stroke="none" 
	d="
M336.000000,1.000000 
	C356.687561,1.000000 377.375122,1.000000 398.228699,1.375759 
	C399.738373,2.167657 401.057434,2.815669 402.429779,2.961072 
	C409.585205,3.719206 416.870026,3.761513 423.894348,5.146175 
	C438.734894,8.071599 453.514526,11.385535 468.185852,15.070696 
	C488.939819,20.283699 508.927917,27.988367 527.875427,37.716110 
	C545.568604,46.799873 562.772034,57.085503 579.219360,68.270905 
	C592.781372,77.494125 605.396362,88.283836 617.576477,99.322327 
	C633.938843,114.150986 648.606934,130.642868 661.921265,148.340164 
	C676.216980,167.342010 688.711975,187.515427 698.716187,208.960007 
	C706.951599,226.613220 713.617615,245.097183 719.653503,263.644379 
	C723.917480,276.746857 726.321838,290.503357 728.884949,304.094543 
	C730.810486,314.305206 731.634155,324.721985 733.076172,335.029144 
	C733.178650,335.761475 734.334167,336.346466 735.000000,337.000000 
	C735.000000,357.354218 735.000000,377.708466 734.624268,398.228699 
	C733.832397,399.738251 733.184326,401.057251 733.038940,402.429504 
	C732.280823,409.584930 732.238525,416.869781 730.853821,423.894104 
	C727.928406,438.734650 724.614319,453.514191 720.929260,468.185577 
	C715.716248,488.939575 708.011719,508.927704 698.283936,527.875244 
	C689.200195,545.568420 678.914551,562.771790 667.729187,579.219116 
	C658.506042,592.781189 647.716309,605.396240 636.677856,617.576294 
	C621.849121,633.938477 605.357544,648.606934 587.660156,661.921082 
	C568.658142,676.216614 548.484680,688.711792 527.040161,698.716187 
	C509.387024,706.951782 490.902924,713.617615 472.355652,719.653381 
	C459.253143,723.917297 445.496643,726.321716 431.905487,728.884827 
	C421.694794,730.810425 411.277985,731.634094 400.970917,733.076233 
	C400.238556,733.178711 399.653564,734.334167 399.000031,735.000000 
	C378.312439,735.000000 357.624878,735.000000 336.771301,734.624268 
	C335.762177,733.833191 334.951630,733.151611 334.070862,733.043823 
	C325.340515,731.975281 316.468445,731.633728 307.887512,729.867004 
	C291.047333,726.399841 274.186584,722.789978 257.661713,718.088440 
	C229.908768,710.192139 204.119553,697.670715 179.235184,683.102112 
	C158.307709,670.850220 138.890305,656.532043 121.059654,640.277039 
	C104.989494,625.626892 90.084999,609.749756 76.737137,592.415527 
	C61.030842,572.018555 47.251820,550.383911 36.361046,527.205750 
	C27.949371,509.303619 21.526356,490.399567 15.200608,471.610535 
	C11.473755,460.540833 9.397326,448.879883 7.073897,437.384766 
	C5.310041,428.658142 4.367534,419.766998 2.925604,410.971039 
	C2.803919,410.228760 1.665877,409.653076 1.000005,409.000000 
	C1.000000,381.979095 1.000000,354.958221 1.369735,327.770599 
	C2.498182,322.518494 2.951612,317.364807 4.070644,312.359985 
	C8.036272,294.623840 11.445068,276.710022 16.522251,259.288208 
	C23.898190,233.978470 35.030319,210.171448 47.889015,187.110626 
	C60.970154,163.650894 76.522820,141.968781 94.538170,122.227760 
	C112.607445,102.427673 131.989944,83.756973 154.606232,69.087166 
	C171.856461,57.897980 189.195602,46.532593 207.621841,37.559055 
	C225.527924,28.838852 244.659164,22.423306 263.652374,16.220341 
	C276.438110,12.044658 289.849182,9.628651 303.111542,7.117387 
	C313.315643,5.185211 323.728699,4.365882 334.030945,2.923844 
	C334.762726,2.821411 335.347076,1.665866 336.000000,1.000000 
M553.999634,558.500549 
	C564.013916,546.819458 574.388489,535.424500 583.949829,523.383728 
	C595.525146,508.806824 604.301086,492.362213 611.668884,475.387848 
	C619.721252,456.835999 626.329224,437.648346 629.190979,417.452545 
	C630.948181,405.051727 633.168701,392.648102 633.814819,380.174957 
	C634.701111,363.064728 634.307007,345.870331 630.962646,328.947601 
	C628.559082,316.785675 626.313171,304.554352 623.072693,292.604645 
	C617.544800,272.219788 608.895935,253.088959 598.383362,234.746490 
	C588.497253,217.496994 576.828369,201.587097 563.408569,186.994507 
	C550.694336,173.169144 536.964783,160.229233 521.210449,150.040451 
	C505.987762,140.195465 490.188049,130.970718 473.793640,123.282112 
	C455.641663,114.769249 436.436340,108.570610 416.390472,105.769882 
	C403.984344,104.036537 391.579010,101.867432 379.102234,101.174835 
	C362.319946,100.243248 345.465759,100.830322 328.876953,104.048653 
	C316.711823,106.408760 304.499268,108.724312 292.551056,111.958275 
	C271.367615,117.691864 251.513641,126.727707 232.571335,137.808762 
	C215.687729,147.685501 200.171738,159.379150 185.861465,172.671143 
	C172.456650,185.122086 160.475143,198.867508 149.826370,213.731323 
	C139.199524,228.564514 130.289261,244.460190 123.124596,261.197906 
	C115.219543,279.665253 108.607513,298.640991 105.732338,318.668365 
	C104.022430,330.578857 101.759125,342.487823 101.192108,354.466003 
	C100.366470,371.907166 100.544044,389.439575 104.025764,406.695618 
	C106.508949,419.002686 108.768509,431.386597 111.998726,443.504089 
	C117.399368,463.763489 126.087196,482.706482 136.403793,500.955658 
	C146.525070,518.859314 158.651566,535.283142 172.801666,550.105652 
	C181.332016,559.041382 190.279846,567.786804 200.082352,575.248535 
	C213.144653,585.191650 226.680283,594.768799 240.981812,602.770935 
	C265.071777,616.250183 290.800323,625.951721 318.306854,630.009583 
	C331.995026,632.028931 345.749603,633.876465 359.541321,634.817749 
	C368.726624,635.444641 378.061462,634.695007 387.273560,633.907959 
	C398.625305,632.938049 410.129883,632.229370 421.196289,629.748169 
	C448.557587,623.613281 474.788391,614.209412 499.181366,600.027771 
	C518.961121,588.528198 537.241272,575.123230 553.999634,558.500549 
z"/>
<path fill="#000000" opacity="1.000000" stroke="none" 
	d="
M735.000000,336.531342 
	C734.334167,336.346466 733.178650,335.761475 733.076172,335.029144 
	C731.634155,324.721985 730.810486,314.305206 728.884949,304.094543 
	C726.321838,290.503357 723.917480,276.746857 719.653503,263.644379 
	C713.617615,245.097183 706.951599,226.613220 698.716187,208.960007 
	C688.711975,187.515427 676.216980,167.342010 661.921265,148.340164 
	C648.606934,130.642868 633.938843,114.150986 617.576477,99.322327 
	C605.396362,88.283836 592.781372,77.494125 579.219360,68.270905 
	C562.772034,57.085503 545.568604,46.799873 527.875427,37.716110 
	C508.927917,27.988367 488.939819,20.283699 468.185852,15.070696 
	C453.514526,11.385535 438.734894,8.071599 423.894348,5.146175 
	C416.870026,3.761513 409.585205,3.719206 402.429779,2.961072 
	C401.057434,2.815669 399.738373,2.167657 398.697357,1.375759 
	C510.927032,1.000000 622.854065,1.000000 735.000000,1.000000 
	C735.000000,112.687469 735.000000,224.375076 735.000000,336.531342 
z"/>
<path fill="#000000" opacity="1.000000" stroke="none" 
	d="
M399.468689,735.000000 
	C399.653564,734.334167 400.238556,733.178711 400.970917,733.076233 
	C411.277985,731.634094 421.694794,730.810425 431.905487,728.884827 
	C445.496643,726.321716 459.253143,723.917297 472.355652,719.653381 
	C490.902924,713.617615 509.387024,706.951782 527.040161,698.716187 
	C548.484680,688.711792 568.658142,676.216614 587.660156,661.921082 
	C605.357544,648.606934 621.849121,633.938477 636.677856,617.576294 
	C647.716309,605.396240 658.506042,592.781189 667.729187,579.219116 
	C678.914551,562.771790 689.200195,545.568420 698.283936,527.875244 
	C708.011719,508.927704 715.716248,488.939575 720.929260,468.185577 
	C724.614319,453.514191 727.928406,438.734650 730.853821,423.894104 
	C732.238525,416.869781 732.280823,409.584930 733.038940,402.429504 
	C733.184326,401.057251 733.832397,399.738251 734.624268,398.697327 
	C735.000000,510.927063 735.000000,622.854126 735.000000,735.000000 
	C623.312561,735.000000 511.624939,735.000000 399.468689,735.000000 
z"/>
<path fill="#000000" opacity="1.000000" stroke="none" 
	d="
M1.000005,409.468658 
	C1.665877,409.653076 2.803919,410.228760 2.925604,410.971039 
	C4.367534,419.766998 5.310041,428.658142 7.073897,437.384766 
	C9.397326,448.879883 11.473755,460.540833 15.200608,471.610535 
	C21.526356,490.399567 27.949371,509.303619 36.361046,527.205750 
	C47.251820,550.383911 61.030842,572.018555 76.737137,592.415527 
	C90.084999,609.749756 104.989494,625.626892 121.059654,640.277039 
	C138.890305,656.532043 158.307709,670.850220 179.235184,683.102112 
	C204.119553,697.670715 229.908768,710.192139 257.661713,718.088440 
	C274.186584,722.789978 291.047333,726.399841 307.887512,729.867004 
	C316.468445,731.633728 325.340515,731.975281 334.070862,733.043823 
	C334.951630,733.151611 335.762177,733.833191 336.302673,734.624268 
	C224.407257,735.000000 112.814522,735.000000 1.000000,735.000000 
	C1.000000,626.645874 1.000000,518.291565 1.000005,409.468658 
z"/>
<path fill="#000000" opacity="1.000000" stroke="none" 
	d="
M335.531342,1.000000 
	C335.347076,1.665866 334.762726,2.821411 334.030945,2.923844 
	C323.728699,4.365882 313.315643,5.185211 303.111542,7.117387 
	C289.849182,9.628651 276.438110,12.044658 263.652374,16.220341 
	C244.659164,22.423306 225.527924,28.838852 207.621841,37.559055 
	C189.195602,46.532593 171.856461,57.897980 154.606232,69.087166 
	C131.989944,83.756973 112.607445,102.427673 94.538170,122.227760 
	C76.522820,141.968781 60.970154,163.650894 47.889015,187.110626 
	C35.030319,210.171448 23.898190,233.978470 16.522251,259.288208 
	C11.445068,276.710022 8.036272,294.623840 4.070644,312.359985 
	C2.951612,317.364807 2.498182,322.518494 1.369735,327.301941 
	C1.000000,218.405273 1.000000,109.810547 1.000000,1.000000 
	C112.354134,1.000000 223.708405,1.000000 335.531342,1.000000 
z"/>
<path fill="#000000" opacity="1.000000" stroke="none" 
	d="
M553.749390,558.750488 
	C537.241272,575.123230 518.961121,588.528198 499.181366,600.027771 
	C474.788391,614.209412 448.557587,623.613281 421.196289,629.748169 
	C410.129883,632.229370 398.625305,632.938049 387.273560,633.907959 
	C378.061462,634.695007 368.726624,635.444641 359.541321,634.817749 
	C345.749603,633.876465 331.995026,632.028931 318.306854,630.009583 
	C290.800323,625.951721 265.071777,616.250183 240.981812,602.770935 
	C226.680283,594.768799 213.144653,585.191650 200.082352,575.248535 
	C190.279846,567.786804 181.332016,559.041382 172.801666,550.105652 
	C158.651566,535.283142 146.525070,518.859314 136.403793,500.955658 
	C126.087196,482.706482 117.399368,463.763489 111.998726,443.504089 
	C108.768509,431.386597 106.508949,419.002686 104.025764,406.695618 
	C100.544044,389.439575 100.366470,371.907166 101.192108,354.466003 
	C101.759125,342.487823 104.022430,330.578857 105.732338,318.668365 
	C108.607513,298.640991 115.219543,279.665253 123.124596,261.197906 
	C130.289261,244.460190 139.199524,228.564514 149.826370,213.731323 
	C160.475143,198.867508 172.456650,185.122086 185.861465,172.671143 
	C200.171738,159.379150 215.687729,147.685501 232.571335,137.808762 
	C251.513641,126.727707 271.367615,117.691864 292.551056,111.958275 
	C304.499268,108.724312 316.711823,106.408760 328.876953,104.048653 
	C345.465759,100.830322 362.319946,100.243248 379.102234,101.174835 
	C391.579010,101.867432 403.984344,104.036537 416.390472,105.769882 
	C436.436340,108.570610 455.641663,114.769249 473.793640,123.282112 
	C490.188049,130.970718 505.987762,140.195465 521.210449,150.040451 
	C536.964783,160.229233 550.694336,173.169144 563.408569,186.994507 
	C576.828369,201.587097 588.497253,217.496994 598.383362,234.746490 
	C608.895935,253.088959 617.544800,272.219788 623.072693,292.604645 
	C626.313171,304.554352 628.559082,316.785675 630.962646,328.947601 
	C634.307007,345.870331 634.701111,363.064728 633.814819,380.174957 
	C633.168701,392.648102 630.948181,405.051727 629.190979,417.452545 
	C626.329224,437.648346 619.721252,456.835999 611.668884,475.387848 
	C604.301086,492.362213 595.525146,508.806824 583.949829,523.383728 
	C574.388489,535.424500 564.013916,546.819458 553.749390,558.750488 
M404.155914,496.978821 
	C404.373749,496.855682 404.591583,496.732513 404.809418,496.609375 
	C404.565979,496.381104 404.322571,496.152802 403.782776,495.297333 
	C403.421814,495.539978 403.060852,495.782593 402.699890,496.025208 
	C403.023132,496.294556 403.346375,496.563904 404.155914,496.978821 
M411.583008,322.936523 
	C403.933929,333.141479 393.691040,340.344421 381.683807,343.343536 
	C370.870667,346.044464 359.354034,345.997589 348.129974,346.955353 
	C342.640564,347.423828 337.816925,348.836945 333.633667,352.759430 
	C325.452118,360.431000 326.520508,370.683929 326.230408,380.165192 
	C325.904877,390.803711 327.549408,401.487823 327.947540,412.166626 
	C328.490997,426.743866 328.549255,441.338898 329.057312,455.917908 
	C329.263000,461.820496 332.337738,467.375763 338.150848,468.049866 
	C343.628082,468.685059 349.109192,469.945953 354.575867,469.879761 
	C367.241150,469.726501 380.000885,471.454987 392.552185,468.045929 
	C399.926147,466.043030 403.836914,462.139893 404.000824,455.650146 
	C404.331268,442.564911 404.562408,429.476013 405.041901,416.396210 
	C405.300415,409.345490 405.987732,402.310455 406.459137,395.587921 
	C412.350861,394.385315 418.245636,393.400452 424.028076,391.963593 
	C447.729065,386.074127 468.057556,374.677124 483.913879,355.671112 
	C500.443726,335.857758 508.771851,312.688416 510.724060,287.477203 
	C511.898438,272.310516 511.367554,257.005798 508.216736,241.740662 
	C500.897766,206.281647 482.053986,179.677353 450.541656,161.928131 
	C427.715424,149.071320 402.785828,144.366394 377.048615,143.060120 
	C359.924835,142.191025 342.895416,143.611237 326.081421,147.026840 
	C309.669464,150.360748 293.531586,154.632202 278.716064,162.769226 
	C272.409027,166.233170 267.005615,170.356186 266.929871,178.677734 
	C266.844208,188.088882 265.780487,197.520691 266.199524,206.896255 
	C266.467499,212.891037 268.206818,218.946732 270.106171,224.704742 
	C271.853699,230.002411 275.817688,231.278214 280.816589,229.006790 
	C286.932556,226.227783 292.940857,223.210510 299.070618,220.463409 
	C314.574188,213.515350 330.833862,209.402252 347.817505,209.137939 
	C356.131744,209.008560 364.601379,209.621994 372.768494,211.144531 
	C391.519623,214.640091 406.308014,224.104401 415.248352,241.628922 
	C422.872162,256.572784 424.881958,272.225769 423.162750,288.834259 
	C421.905792,300.977234 418.522461,312.086517 411.583008,322.936523 
M406.035339,514.387268 
	C401.736023,509.853180 397.606781,505.382294 390.587250,504.886597 
	C383.153351,504.361603 375.795227,502.379639 368.373383,502.181732 
	C361.575043,502.000397 354.547638,502.596527 347.968353,504.240021 
	C341.579346,505.835999 335.443726,508.320160 330.820618,514.123779 
	C323.974854,522.717651 322.682495,532.689758 322.159485,542.803833 
	C321.718323,551.335022 321.975952,560.034424 323.155029,568.487732 
	C325.149750,582.788147 329.766174,591.763794 345.037140,596.418457 
	C358.932159,600.653870 373.307495,599.962585 387.448853,597.662109 
	C394.510742,596.513367 401.040192,593.534180 406.093048,587.771240 
	C413.247406,579.611389 414.269379,569.584656 414.828339,559.651062 
	C415.317474,550.958130 414.838593,542.123657 413.835327,533.462036 
	C413.068298,526.840088 411.673828,520.040222 406.035339,514.387268 
z"/>
<path fill="#FFFFFF" opacity="1.000000" stroke="none" 
	d="
M411.778320,322.619141 
	C418.522461,312.086517 421.905792,300.977234 423.162750,288.834259 
	C424.881958,272.225769 422.872162,256.572784 415.248352,241.628922 
	C406.308014,224.104401 391.519623,214.640091 372.768494,211.144531 
	C364.601379,209.621994 356.131744,209.008560 347.817505,209.137939 
	C330.833862,209.402252 314.574188,213.515350 299.070618,220.463409 
	C292.940857,223.210510 286.932556,226.227783 280.816589,229.006790 
	C275.817688,231.278214 271.853699,230.002411 270.106171,224.704742 
	C268.206818,218.946732 266.467499,212.891037 266.199524,206.896255 
	C265.780487,197.520691 266.844208,188.088882 266.929871,178.677734 
	C267.005615,170.356186 272.409027,166.233170 278.716064,162.769226 
	C293.531586,154.632202 309.669464,150.360748 326.081421,147.026840 
	C342.895416,143.611237 359.924835,142.191025 377.048615,143.060120 
	C402.785828,144.366394 427.715424,149.071320 450.541656,161.928131 
	C482.053986,179.677353 500.897766,206.281647 508.216736,241.740662 
	C511.367554,257.005798 511.898438,272.310516 510.724060,287.477203 
	C508.771851,312.688416 500.443726,335.857758 483.913879,355.671112 
	C468.057556,374.677124 447.729065,386.074127 424.028076,391.963593 
	C418.245636,393.400452 412.350861,394.385315 406.459137,395.587921 
	C405.987732,402.310455 405.300415,409.345490 405.041901,416.396210 
	C404.562408,429.476013 404.331268,442.564911 404.000824,455.650146 
	C403.836914,462.139893 399.926147,466.043030 392.552185,468.045929 
	C380.000885,471.454987 367.241150,469.726501 354.575867,469.879761 
	C349.109192,469.945953 343.628082,468.685059 338.150848,468.049866 
	C332.337738,467.375763 329.263000,461.820496 329.057312,455.917908 
	C328.549255,441.338898 328.490997,426.743866 327.947540,412.166626 
	C327.549408,401.487823 325.904877,390.803711 326.230408,380.165192 
	C326.520508,370.683929 325.452118,360.431000 333.633667,352.759430 
	C337.816925,348.836945 342.640564,347.423828 348.129974,346.955353 
	C359.354034,345.997589 370.870667,346.044464 381.683807,343.343536 
	C393.691040,340.344421 403.933929,333.141479 411.778320,322.619141 
z"/>
<path fill="#FFFFFF" opacity="1.000000" stroke="none" 
	d="
M406.257202,514.684204 
	C411.673828,520.040222 413.068298,526.840088 413.835327,533.462036 
	C414.838593,542.123657 415.317474,550.958130 414.828339,559.651062 
	C414.269379,569.584656 413.247406,579.611389 406.093048,587.771240 
	C401.040192,593.534180 394.510742,596.513367 387.448853,597.662109 
	C373.307495,599.962585 358.932159,600.653870 345.037140,596.418457 
	C329.766174,591.763794 325.149750,582.788147 323.155029,568.487732 
	C321.975952,560.034424 321.718323,551.335022 322.159485,542.803833 
	C322.682495,532.689758 323.974854,522.717651 330.820618,514.123779 
	C335.443726,508.320160 341.579346,505.835999 347.968353,504.240021 
	C354.547638,502.596527 361.575043,502.000397 368.373383,502.181732 
	C375.795227,502.379639 383.153351,504.361603 390.587250,504.886597 
	C397.606781,505.382294 401.736023,509.853180 406.257202,514.684204 
z"/>
<path fill="#FFFFFF" opacity="1.000000" stroke="none" 
	d="
M403.669647,496.833221 
	C403.346375,496.563904 403.023132,496.294556 402.699890,496.025208 
	C403.060852,495.782593 403.421814,495.539978 403.800842,495.825562 
	C403.769135,496.513641 403.719391,496.673431 403.669647,496.833221 
z"/>
<path fill="#FFFFFF" opacity="1.000000" stroke="none" 
	d="
M403.949036,496.139160 
	C404.322571,496.152802 404.565979,496.381104 404.809418,496.609375 
	C404.591583,496.732513 404.373749,496.855682 403.912781,496.906006 
	C403.719391,496.673431 403.769135,496.513641 403.949036,496.139160 
z"/>
</svg>