<?xml version="1.0" standalone="no"?>
<!DOCTYPE svg PUBLIC "-//W3C//DTD SVG 20010904//EN"
 "http://www.w3.org/TR/2001/REC-SVG-20010904/DTD/svg10.dtd">
<svg version="1.0" xmlns="http://www.w3.org/2000/svg"
 width="500.000000pt" height="500.000000pt" viewBox="0 0 500.000000 500.000000"
 preserveAspectRatio="xMidYMid meet">

<g transform="translate(0.000000,500.000000) scale(0.100000,-0.100000)"
fill="#000000" stroke="none">
<path d="M1 3973 l0 -1028 44 170 c117 458 312 806 640 1144 347 357 721 574
1200 697 l170 43 -1027 0 -1028 1 1 -1027z"/>
<path d="M3115 4955 c310 -79 536 -179 787 -347 262 -175 531 -444 707 -708
166 -247 268 -478 346 -785 l44 -170 0 1028 1 1027 -1027 -1 -1028 0 170 -44z"/>
<path d="M2300 4659 c-409 -39 -855 -221 -1170 -479 -538 -440 -846 -1149
-792 -1828 30 -382 151 -737 359 -1052 85 -129 142 -198 270 -326 125 -126
202 -190 333 -277 264 -174 570 -292 891 -344 143 -23 475 -23 618 0 459 74
877 280 1200 591 333 322 561 767 638 1247 23 143 23 475 0 618 -53 330 -171
630 -358 912 -68 103 -113 155 -263 305 -150 150 -202 195 -305 263 -433 287
-930 417 -1421 370z m454 -748 l58 -198 57 -18 c31 -9 91 -33 133 -52 l77 -35
181 97 182 98 155 -155 155 -155 -97 -178 -96 -178 39 -86 c22 -47 46 -105 53
-129 7 -23 17 -46 23 -51 9 -7 197 -65 379 -117 16 -5 17 -22 15 -226 l-3
-220 -115 -35 c-304 -91 -277 -80 -284 -114 -3 -17 -27 -80 -52 -140 l-46
-109 96 -176 c53 -98 96 -180 96 -183 0 -4 -69 -75 -154 -160 l-153 -153 -176
96 c-97 53 -181 96 -187 96 -6 0 -41 -15 -78 -34 -37 -18 -97 -43 -133 -55
l-66 -22 -59 -199 -59 -200 -220 0 -220 0 -59 200 -59 199 -66 22 c-36 12 -96
37 -133 55 -37 19 -72 34 -77 34 -6 0 -90 -43 -187 -96 l-177 -96 -155 155
-155 155 96 180 c54 98 97 184 97 189 0 6 -18 48 -39 94 -22 46 -45 105 -51
131 l-12 48 -97 29 c-53 17 -141 43 -196 59 l-100 30 -3 220 c-2 204 -1 221
15 226 186 53 371 110 380 117 6 6 14 22 18 37 3 15 26 73 51 129 l45 101 -96
178 -97 177 154 154 c84 84 158 152 163 151 6 -2 88 -45 183 -97 l174 -93 76
35 c42 19 102 43 134 52 l56 18 59 198 58 199 220 0 221 0 58 -199z"/>
<path d="M2339 3095 c-284 -72 -472 -323 -456 -610 18 -333 296 -583 626 -562
116 7 206 37 299 100 404 276 323 891 -139 1054 -91 32 -243 40 -330 18z"/>
<path d="M1 1028 l-1 -1028 1028 1 1027 0 -170 44 c-307 78 -538 180 -785 346
-264 176 -533 445 -708 707 -168 251 -268 477 -347 787 l-44 170 0 -1027z"/>
<path d="M4966 1928 c-111 -482 -339 -884 -702 -1238 -341 -333 -687 -527
-1149 -645 l-170 -44 1028 0 1027 -1 0 1025 c0 564 -1 1025 -3 1025 -1 0 -15
-55 -31 -122z"/>
</g>
</svg>
