<svg version="1.1" id="Layer_1" xmlns="http://www.w3.org/2000/svg" xmlns:xlink="http://www.w3.org/1999/xlink" x="0px" y="0px"
	 width="100%" viewBox="0 0 720 720" enable-background="new 0 0 720 720" xml:space="preserve">
<path fill="#000000" opacity="1.000000" stroke="none" 
	d="
M351.531342,1.000000 
	C350.777740,2.512519 349.054077,2.299071 347.398926,2.350261 
	C331.127289,2.853504 315.088379,5.159425 299.088928,8.097096 
	C274.365845,12.636519 250.359818,19.505987 227.200775,29.255352 
	C208.509567,37.123882 190.511749,46.327564 173.255783,57.047180 
	C157.723007,66.696342 142.916092,77.331108 129.115463,89.252365 
	C113.639252,102.621040 99.354034,117.196442 86.076340,132.846085 
	C66.383553,156.056808 50.285725,181.536453 36.888138,208.696915 
	C24.450710,233.910858 15.311243,260.397034 9.362971,287.938629 
	C6.039717,303.325897 3.312191,318.790771 2.300452,334.524841 
	C2.238991,335.480621 1.802199,336.412262 1.270023,337.677551 
	C1.000000,225.738113 1.000000,113.476219 1.000000,1.000000 
	C117.687477,1.000000 234.375076,1.000000 351.531342,1.000000 
z"/>
<path fill="#000000" opacity="1.000000" stroke="none" 
	d="
M721.000000,266.531342 
	C719.004700,264.958923 719.104736,262.151428 718.315186,259.668549 
	C710.345642,234.605850 699.920166,210.650330 687.008362,187.698334 
	C676.802429,169.556320 665.145447,152.447235 652.028076,136.378357 
	C637.504578,118.587074 621.294617,102.408562 603.722717,87.533432 
	C580.386780,67.778877 554.906311,51.375805 527.542297,37.958729 
	C502.141113,25.504091 475.489716,16.405542 447.808624,10.366787 
	C432.740234,7.079563 417.532623,4.912566 402.210388,3.194893 
	C396.272186,2.529202 390.271729,3.049257 384.206299,1.386822 
	C496.251801,1.000000 608.503601,1.000000 721.000000,1.000000 
	C721.000000,89.354080 721.000000,177.708374 721.000000,266.531342 
z"/>
<path fill="#000000" opacity="1.000000" stroke="none" 
	d="
M1.000000,398.468658 
	C3.730787,401.812164 2.609369,406.418243 3.058212,410.534241 
	C6.036606,437.846832 12.251792,464.395233 21.422722,490.204651 
	C30.444962,515.595642 42.227818,539.698120 56.604218,562.572388 
	C67.928268,580.590088 80.533401,597.655151 94.846939,613.275452 
	C106.155289,625.616333 118.054138,637.478027 131.085068,648.198547 
	C146.868866,661.183899 163.167862,673.354370 180.833069,683.590210 
	C206.144440,698.256531 232.445709,710.766418 260.749146,718.672241 
	C262.157776,719.065674 263.475006,719.786499 264.917389,720.677429 
	C177.065613,721.000000 89.131210,721.000000 1.000000,721.000000 
	C1.000000,613.645874 1.000000,506.291595 1.000000,398.468658 
z"/>
<path fill="#000000" opacity="1.000000" stroke="none" 
	d="
M469.468658,721.000000 
	C475.319000,717.593811 482.406342,716.365295 489.087799,713.979675 
	C514.343445,704.962036 538.291077,693.333008 561.150879,679.324829 
	C589.664734,661.851990 615.045959,640.577515 637.708130,616.118652 
	C654.398499,598.105042 669.167419,578.515625 681.710632,557.360107 
	C697.416992,530.869385 710.530518,503.196869 718.903870,473.437592 
	C719.214478,472.333466 719.816833,471.311401 720.641602,470.125549 
	C721.000000,553.593872 721.000000,637.187683 721.000000,721.000000 
	C637.312561,721.000000 553.624939,721.000000 469.468658,721.000000 
z"/>
<path fill="#000000" opacity="1.000000" stroke="none" 
	d="
M223.784149,593.351929 
	C204.993393,581.165466 188.101776,567.236084 173.084213,551.097717 
	C159.025055,535.989258 146.698776,519.613892 136.345169,501.690582 
	C124.639236,481.426239 115.811508,460.024078 109.680878,437.508301 
	C105.368645,421.670898 102.657326,405.549988 101.498390,389.119904 
	C100.971184,381.645691 100.679382,374.201752 100.664177,366.729370 
	C100.591652,331.081329 107.639595,296.868896 121.449486,264.031250 
	C132.429031,237.923691 147.265228,214.276749 165.780914,192.790573 
	C191.644058,162.778229 222.694031,139.805313 258.710938,123.671104 
	C283.355682,112.631180 309.159363,105.459473 336.151550,102.473267 
	C351.250153,100.802872 366.358856,99.961143 381.432343,100.826530 
	C412.407898,102.604874 442.390442,109.240601 471.008789,121.521858 
	C497.454010,132.870560 521.523987,147.859558 543.262268,166.841278 
	C572.402649,192.286438 594.772766,222.665039 610.792969,257.686462 
	C621.115295,280.251770 627.959961,303.928009 631.511719,328.597778 
	C634.032715,346.108154 635.132080,363.671326 634.202515,381.245453 
	C632.644104,410.709534 626.529114,439.278076 615.589966,466.804260 
	C605.062378,493.294769 590.703308,517.527161 572.474670,539.290588 
	C554.253052,561.045654 533.021667,579.514648 508.853699,594.670776 
	C481.966675,611.532043 453.025818,623.084900 422.147522,629.823059 
	C411.007080,632.254089 399.655914,633.638184 388.228119,634.566101 
	C379.408783,635.282227 370.623413,635.474548 361.827972,635.313416 
	C329.679108,634.724548 298.674805,628.388062 268.807312,616.422729 
	C253.188522,610.165527 238.346863,602.440125 223.784149,593.351929 
M173.543030,322.385468 
	C170.214584,322.451843 166.812302,322.091125 163.569336,322.651886 
	C136.629364,327.310455 118.189713,352.318146 122.042091,379.520782 
	C125.077553,400.954987 147.205475,422.671204 170.787308,421.746796 
	C184.598251,421.205353 198.515015,422.486542 212.258652,421.383606 
	C223.201477,420.505432 229.710785,423.393280 232.423965,434.477051 
	C233.239441,437.808350 233.449463,439.754364 230.912781,442.232758 
	C219.708557,453.179565 208.749374,464.376740 197.578339,475.358032 
	C193.293152,479.570404 189.293228,483.914124 186.638397,489.379181 
	C180.749527,501.501678 179.300720,514.273499 183.271271,526.988892 
	C186.575684,537.571045 192.399277,546.562317 202.148254,553.349060 
	C210.059875,558.856750 218.482559,561.551758 227.428619,562.462158 
	C245.360809,564.286987 259.613129,555.825073 271.200317,543.276978 
	C281.593506,532.021912 292.705750,521.531799 303.362061,510.569031 
	C304.729614,509.162201 306.072723,509.047699 307.831116,509.816315 
	C311.627594,511.475739 315.421753,513.210815 319.364380,514.442871 
	C322.497650,515.421997 323.451874,517.177795 323.394409,520.289917 
	C323.244171,528.430359 323.222290,536.549988 322.444244,544.687134 
	C321.604919,553.465454 323.336945,562.281738 323.235626,571.055847 
	C322.925812,597.881897 350.305298,623.348877 379.199921,619.008179 
	C402.027679,615.578918 422.927734,593.273804 421.773438,569.036377 
	C421.100372,554.903015 422.186493,540.683472 421.451813,526.556274 
	C421.010132,518.063599 422.640564,512.359314 431.866425,510.900452 
	C432.969086,510.726105 434.075104,510.072754 435.006012,509.400909 
	C438.550873,506.842743 441.217743,507.848297 444.113129,510.800507 
	C455.664398,522.578491 467.454865,534.121521 479.052490,545.854553 
	C490.044312,556.974731 503.266357,561.335510 518.709229,559.641724 
	C530.781860,558.317505 541.065491,552.948730 549.098267,544.334412 
	C554.378174,538.672302 558.593628,531.887817 560.615479,523.860901 
	C564.784180,507.310394 562.727417,492.100922 551.061279,479.412201 
	C539.567200,466.910736 527.159912,455.248932 515.153748,443.218292 
	C509.031433,437.083405 509.033875,437.083832 512.212585,429.267303 
	C513.025146,427.269226 514.152466,425.327911 514.552124,423.248505 
	C515.318970,419.258545 517.686829,418.531250 521.340820,418.579132 
	C534.837341,418.756134 548.337646,418.659119 561.836487,418.641815 
	C567.334290,418.634735 572.966919,419.336731 578.306946,418.398987 
	C604.894226,413.730133 623.754089,389.101227 619.975098,361.494598 
	C617.004456,339.793121 594.919495,318.225769 570.815857,319.262512 
	C557.009277,319.856384 543.119202,318.752197 529.336365,319.576935 
	C519.414673,320.170624 512.667786,318.444397 510.100189,307.518494 
	C509.156128,303.501282 508.663635,300.970642 511.843018,297.876282 
	C524.022034,286.022980 535.982727,273.944397 547.952332,261.877869 
	C549.786621,260.028778 551.511047,258.141754 552.919739,255.766525 
	C559.714966,244.309006 561.846680,232.281845 559.887024,219.074326 
	C558.159912,207.433868 552.273926,198.179398 544.132019,190.641602 
	C537.362427,184.374298 528.766724,180.776306 519.295959,179.185760 
	C503.626862,176.554260 489.799622,180.422897 478.399933,190.907227 
	C465.164459,203.079971 452.785248,216.189133 440.163727,229.019058 
	C437.893433,231.326874 436.080811,232.473770 432.927124,230.538849 
	C430.708557,229.177673 428.072723,228.348160 425.515472,227.719635 
	C420.816956,226.564804 419.451080,223.825699 419.540466,219.057495 
	C419.833954,203.397644 419.434021,187.725220 419.696930,172.064285 
	C420.167023,144.060745 395.943237,120.711250 368.901733,121.097282 
	C342.616669,121.472527 319.528168,143.656570 319.368256,170.793808 
	C319.267090,187.956848 319.371613,205.121002 319.324768,222.284500 
	C319.312408,226.806793 304.449097,234.900513 300.569183,232.554626 
	C300.011688,232.217545 299.570038,231.679047 299.100098,231.208450 
	C288.856110,220.950394 278.392670,210.899460 268.440094,200.365906 
	C259.295990,190.688034 249.055939,183.447266 235.483643,181.772934 
	C218.463806,179.673294 203.552292,184.767883 192.386398,197.304321 
	C183.626434,207.139511 178.733368,219.190277 179.846664,233.270752 
	C180.780212,245.077942 184.650772,255.204788 192.872375,263.569458 
	C205.253830,276.166321 217.828979,288.572693 230.283356,301.098236 
	C231.711426,302.534454 233.804092,303.672882 232.389252,306.508759 
	C230.466827,310.361969 228.705750,314.331451 227.309525,318.400055 
	C226.193787,321.651367 224.316422,322.481995 221.026169,322.446930 
	C205.529282,322.281708 190.029587,322.381256 173.543030,322.385468 
z"/>
<path fill="#000000" opacity="1.000000" stroke="none" 
	d="
M321.426453,385.330261 
	C313.685150,358.933075 327.832245,329.440338 354.708405,321.335083 
	C373.596161,315.638947 390.571899,319.057220 405.566528,331.454803 
	C414.965454,339.225830 420.180725,349.691895 422.353790,361.737854 
	C426.580994,385.170502 413.458649,408.790405 391.798309,418.089691 
	C369.767731,427.547943 343.931946,421.527985 329.465820,401.506897 
	C326.067505,396.803589 322.746033,391.700317 321.426453,385.330261 
z"/>
</svg>